<?xml version="1.0" encoding="utf-8"?>
<!-- Generator: Adobe Illustrator 23.1.0, SVG Export Plug-In . SVG Version: 6.00 Build 0)  -->
<svg version="1.1" id="Layer_1" xmlns="http://www.w3.org/2000/svg" xmlns:xlink="http://www.w3.org/1999/xlink" x="0px" y="0px"
	 viewBox="0 0 432 432" style="enable-background:new 0 0 432 432;" xml:space="preserve">
<style type="text/css">
	.st0{fill:none;}
	.st1{fill:url(#SVGID_1_);}
	.st2{fill:#DFB968;}
	.st3{font-family:'Poppins-Bold';}
	.st4{font-size:18.0219px;}
	.st5{letter-spacing:3;}
	.st6{fill:url(#SVGID_2_);}
	.st7{fill:url(#SVGID_3_);}
	.st8{fill:url(#SVGID_4_);}
	.st9{fill:url(#SVGID_5_);}
	.st10{fill:url(#SVGID_6_);}
	.st11{fill:url(#SVGID_7_);}
	.st12{fill:url(#SVGID_8_);}
	.st13{fill:url(#SVGID_9_);}
	.st14{fill:url(#SVGID_10_);}
	.st15{fill:url(#SVGID_11_);}
	.st16{fill:url(#SVGID_12_);}
	.st17{fill:url(#SVGID_13_);}
	.st18{fill:url(#SVGID_14_);}
	.st19{fill:url(#SVGID_15_);}
	.st20{fill:url(#SVGID_16_);}
	.st21{fill:url(#SVGID_17_);}
	.st22{fill:url(#SVGID_18_);}
	.st23{fill:url(#SVGID_19_);}
	.st24{fill:url(#SVGID_20_);}
	.st25{fill:url(#SVGID_21_);}
	.st26{fill:url(#SVGID_22_);}
	.st27{fill:url(#SVGID_23_);}
	.st28{fill:url(#SVGID_24_);}
	.st29{fill:url(#SVGID_25_);}
	.st30{fill:url(#SVGID_26_);}
	.st31{fill:url(#SVGID_27_);}
	.st32{fill:url(#SVGID_28_);}
	.st33{fill:url(#SVGID_29_);}
	.st34{fill:url(#SVGID_30_);}
	.st35{fill:url(#SVGID_31_);}
	.st36{fill:url(#SVGID_32_);}
	.st37{fill:url(#SVGID_33_);}
	.st38{fill:url(#SVGID_34_);}
	.st39{fill:url(#SVGID_35_);}
	.st40{fill:url(#SVGID_36_);}
	.st41{fill:url(#SVGID_37_);}
	.st42{fill:url(#SVGID_38_);}
	.st43{fill:url(#SVGID_39_);}
	.st44{fill:url(#SVGID_40_);}
	.st45{fill:url(#SVGID_41_);}
	.st46{fill:url(#SVGID_42_);}
	.st47{fill:url(#SVGID_43_);}
	.st48{fill:url(#SVGID_44_);}
	.st49{fill:url(#SVGID_45_);}
	.st50{fill:url(#SVGID_46_);}
	.st51{fill:url(#SVGID_47_);}
	.st52{fill:url(#SVGID_48_);}
	.st53{fill:url(#SVGID_49_);}
	.st54{fill:url(#SVGID_50_);}
	.st55{fill:url(#SVGID_51_);}
	.st56{fill:url(#SVGID_52_);}
	.st57{fill:url(#SVGID_53_);}
	.st58{fill:url(#SVGID_54_);}
	.st59{fill:url(#SVGID_55_);}
	.st60{fill:url(#SVGID_56_);}
	.st61{fill:url(#SVGID_57_);}
	.st62{fill:url(#SVGID_58_);}
	.st63{fill:url(#SVGID_59_);}
	.st64{fill:url(#SVGID_60_);}
	.st65{fill:url(#SVGID_61_);}
	.st66{fill:url(#SVGID_62_);}
	.st67{fill:url(#SVGID_63_);}
	.st68{fill:url(#SVGID_64_);}
	.st69{fill:url(#SVGID_65_);}
	.st70{fill:url(#SVGID_66_);}
	.st71{fill:url(#SVGID_67_);}
	.st72{fill:url(#SVGID_68_);}
	.st73{fill:url(#SVGID_69_);}
	.st74{fill:url(#SVGID_70_);}
	.st75{fill:url(#SVGID_71_);}
	.st76{fill:url(#SVGID_72_);}
	.st77{fill:url(#SVGID_73_);}
	.st78{fill:url(#SVGID_74_);}
	.st79{fill:url(#SVGID_75_);}
	.st80{fill:url(#SVGID_76_);}
	.st81{fill:url(#SVGID_77_);}
	.st82{fill:url(#SVGID_78_);}
	.st83{fill:url(#SVGID_79_);}
	.st84{fill:url(#SVGID_80_);}
	.st85{fill:url(#SVGID_81_);}
	.st86{fill:url(#SVGID_82_);}
	.st87{fill:url(#SVGID_83_);}
	.st88{fill:url(#SVGID_84_);}
	.st89{fill:url(#SVGID_85_);}
	.st90{fill:url(#SVGID_86_);}
</style>
<line class="st0" x1="-375.7" y1="127" x2="-376.6" y2="127"/>
<line class="st0" x1="75.9" y1="129.4" x2="75.1" y2="129.4"/>
<radialGradient id="SVGID_1_" cx="224.048" cy="-48.6975" r="410.9165" gradientUnits="userSpaceOnUse">
	<stop  offset="0" style="stop-color:#0C324D"/>
	<stop  offset="0.2764" style="stop-color:#09273C"/>
	<stop  offset="0.5831" style="stop-color:#081F31"/>
	<stop  offset="0.934" style="stop-color:#071D2E"/>
</radialGradient>
<rect x="-2.9" class="st1" width="437.8" height="437.8"/>
<text transform="matrix(1 0 0 1 186.0609 232.9403)" class="st2 st3 st4 st5">RLA</text>
<linearGradient id="SVGID_2_" gradientUnits="userSpaceOnUse" x1="197.2597" y1="102.6807" x2="213.7803" y2="102.6807">
	<stop  offset="4.469550e-03" style="stop-color:#EAD09A"/>
	<stop  offset="0.1698" style="stop-color:#DFB968"/>
	<stop  offset="0.4201" style="stop-color:#DFB968"/>
	<stop  offset="0.9838" style="stop-color:#965D24"/>
</linearGradient>
<polygon class="st6" points="213.8,101 209.5,104.9 210.3,110.6 205.3,107.8 200.1,110.3 201.3,104.7 197.3,100.5 203,99.8 
	205.7,94.7 208.1,100 "/>
<linearGradient id="SVGID_3_" gradientUnits="userSpaceOnUse" x1="181.4779" y1="108.9868" x2="191.0433" y2="108.9868">
	<stop  offset="4.469550e-03" style="stop-color:#EAD09A"/>
	<stop  offset="0.1698" style="stop-color:#DFB968"/>
	<stop  offset="0.4201" style="stop-color:#DFB968"/>
	<stop  offset="0.9838" style="stop-color:#965D24"/>
</linearGradient>
<polygon class="st7" points="191,108 188.6,110.3 189.1,113.6 186.1,111.9 183.1,113.4 183.8,110.1 181.5,107.7 184.8,107.3 
	186.4,104.4 187.8,107.4 "/>
<linearGradient id="SVGID_4_" gradientUnits="userSpaceOnUse" x1="219.3441" y1="108.9868" x2="228.9096" y2="108.9868">
	<stop  offset="4.469550e-03" style="stop-color:#EAD09A"/>
	<stop  offset="0.1698" style="stop-color:#DFB968"/>
	<stop  offset="0.4201" style="stop-color:#DFB968"/>
	<stop  offset="0.9838" style="stop-color:#965D24"/>
</linearGradient>
<polygon class="st8" points="228.9,108 226.4,110.3 226.9,113.6 224,111.9 221,113.4 221.7,110.1 219.3,107.7 222.7,107.3 
	224.2,104.4 225.6,107.4 "/>
<g>
	<linearGradient id="SVGID_5_" gradientUnits="userSpaceOnUse" x1="171.9904" y1="178.8886" x2="237.9333" y2="178.8886">
		<stop  offset="4.469550e-03" style="stop-color:#EAD09A"/>
		<stop  offset="0.1698" style="stop-color:#DFB968"/>
		<stop  offset="0.4201" style="stop-color:#DFB968"/>
		<stop  offset="0.9838" style="stop-color:#965D24"/>
	</linearGradient>
	<path class="st9" d="M237.9,152.7c0,0-1.5,2.7-6.3,2.8l0-0.1l-0.4,0.1l0,0l0,0l-0.4-0.1l0,0.1c-6.6-0.2-9.6-3.1-14.6-3.1
		c-7.5,0-9.5,7.6-10,11.2c0,0,0,0,0,0c0.4,6.9,4.1,7.6,4.1,13.9c0,6.6-4.2,10.1-4.2,10.1s-1.2,10.3,2.1,12.6c2.2,1.5,3,4,3.2,5.4v0
		c0.2,0,0.4,0.1,0.6,0.1c2.2,0.6,4.1,1.1,3,3.2c-1.1,2.1-10,2.1-10.2,2.1c-0.1,0-9.1,0-10.2-2.1c-1.1-2.1,0.8-2.6,3-3.2
		c0.2,0,0.4-0.1,0.6-0.1c0.2-1.5,1-3.9,3.2-5.4c3.3-2.3,2.1-12.6,2.1-12.6s-4.2-3.5-4.2-10.1c0-6.3,3.7-7,4.1-13.8c0,0,0,0,0,0
		c-0.5-3.5-2.5-11.2-10-11.2c-4.9,0-8,2.9-14.6,3.1l0-0.1l-0.4,0.1l0,0l0,0l-0.4-0.1l0,0.1c-4.6-0.1-6.2-2.6-6.3-2.8
		c0.4,0.4,1,0.7,1.6,0.7c0.3,0,0.6-0.1,0.8-0.2c6.3,3.5,12.9-5.2,19.8-5.2c5.4,0,8.4,2,9.5,3c0-2.1-0.1-3.6-0.1-4.2
		c0.4,0.1,0.9,0.1,1.3,0.1h0c0.4,0,0.9,0,1.3-0.1c0,0.6,0,2.1-0.1,4.2c1.1-1,4.1-3,9.5-3c6.9,0,13.5,8.7,19.8,5.2
		c0.3,0.1,0.5,0.2,0.8,0.2C237,153.4,237.5,153.2,237.9,152.7z"/>
	<linearGradient id="SVGID_6_" gradientUnits="userSpaceOnUse" x1="171.9863" y1="153.0789" x2="174.4406" y2="153.0789">
		<stop  offset="4.469550e-03" style="stop-color:#EAD09A"/>
		<stop  offset="0.1698" style="stop-color:#DFB968"/>
		<stop  offset="0.4201" style="stop-color:#DFB968"/>
		<stop  offset="0.9838" style="stop-color:#965D24"/>
	</linearGradient>
	<path class="st10" d="M174.4,153.3c-0.3,0.1-0.5,0.2-0.8,0.2c-0.6,0-1.2-0.3-1.6-0.7c0,0,0,0,0,0l1.9,0.2l0,0
		C174.1,153.1,174.3,153.2,174.4,153.3z"/>
	<linearGradient id="SVGID_7_" gradientUnits="userSpaceOnUse" x1="178.2577" y1="155.4439" x2="178.6918" y2="155.4439">
		<stop  offset="4.469550e-03" style="stop-color:#EAD09A"/>
		<stop  offset="0.1698" style="stop-color:#DFB968"/>
		<stop  offset="0.4201" style="stop-color:#DFB968"/>
		<stop  offset="0.9838" style="stop-color:#965D24"/>
	</linearGradient>
	<path class="st11" d="M178.7,155.5c-0.1,0-0.2,0-0.3,0c-0.1,0-0.1,0-0.2,0l0-0.1L178.7,155.5z"/>
	<linearGradient id="SVGID_8_" gradientUnits="userSpaceOnUse" x1="178.708" y1="155.4418" x2="179.1421" y2="155.4418">
		<stop  offset="4.469550e-03" style="stop-color:#EAD09A"/>
		<stop  offset="0.1698" style="stop-color:#DFB968"/>
		<stop  offset="0.4201" style="stop-color:#DFB968"/>
		<stop  offset="0.9838" style="stop-color:#965D24"/>
	</linearGradient>
	<path class="st12" d="M179.1,155.5c-0.1,0-0.3,0-0.4,0L179.1,155.5L179.1,155.5z"/>
	<linearGradient id="SVGID_9_" gradientUnits="userSpaceOnUse" x1="171.386" y1="151.2109" x2="175.8279" y2="151.2109">
		<stop  offset="4.469550e-03" style="stop-color:#EAD09A"/>
		<stop  offset="0.1698" style="stop-color:#DFB968"/>
		<stop  offset="0.4201" style="stop-color:#DFB968"/>
		<stop  offset="0.9838" style="stop-color:#965D24"/>
	</linearGradient>
	<path class="st13" d="M175.8,151.2c0,0.2,0,0.4-0.1,0.6c0,0,0,0,0,0.1c-0.2,0.6-0.7,1.1-1.3,1.4c0,0,0,0,0,0
		c-0.3,0.1-0.5,0.2-0.8,0.2c-0.6,0-1.2-0.3-1.6-0.7c0,0,0,0,0,0c-0.4-0.4-0.6-0.9-0.6-1.5c0-1.2,1-2.2,2.2-2.2
		C174.8,149,175.8,150,175.8,151.2z"/>
	<linearGradient id="SVGID_10_" gradientUnits="userSpaceOnUse" x1="173.4992" y1="152.5268" x2="175.9079" y2="152.5268">
		<stop  offset="4.469550e-03" style="stop-color:#EAD09A"/>
		<stop  offset="0.1698" style="stop-color:#DFB968"/>
		<stop  offset="0.4201" style="stop-color:#DFB968"/>
		<stop  offset="0.9838" style="stop-color:#965D24"/>
	</linearGradient>
	<path class="st14" d="M173.5,152.3c0,0,0,0.6,0.9,1c0,0,2-0.5,1.3-1.5C175.5,152.7,174,153.3,173.5,152.3z"/>
	<g>
		<g>
			<linearGradient id="SVGID_11_" gradientUnits="userSpaceOnUse" x1="178.2662" y1="173.585" x2="179.1331" y2="173.585">
				<stop  offset="4.469550e-03" style="stop-color:#EAD09A"/>
				<stop  offset="0.1698" style="stop-color:#DFB968"/>
				<stop  offset="0.4201" style="stop-color:#DFB968"/>
				<stop  offset="0.9838" style="stop-color:#965D24"/>
			</linearGradient>
			<rect x="178.3" y="155.5" class="st15" width="0.9" height="36.2"/>
		</g>
		<g>
			<linearGradient id="SVGID_12_" gradientUnits="userSpaceOnUse" x1="170.0433" y1="173.5847" x2="179.1218" y2="173.5847">
				<stop  offset="4.469550e-03" style="stop-color:#EAD09A"/>
				<stop  offset="0.1698" style="stop-color:#DFB968"/>
				<stop  offset="0.4201" style="stop-color:#DFB968"/>
				<stop  offset="0.9838" style="stop-color:#965D24"/>
			</linearGradient>
			<polygon class="st16" points="179.1,155.6 178.7,157.4 178.3,159.3 170.9,191.8 170,191.6 178.3,155.5 178.3,155.4 178.7,155.5 
				178.7,155.5 178.7,155.5 			"/>
		</g>
		<g>
			<linearGradient id="SVGID_13_" gradientUnits="userSpaceOnUse" x1="178.278" y1="173.5847" x2="187.3566" y2="173.5847">
				<stop  offset="4.469550e-03" style="stop-color:#EAD09A"/>
				<stop  offset="0.1698" style="stop-color:#DFB968"/>
				<stop  offset="0.4201" style="stop-color:#DFB968"/>
				<stop  offset="0.9838" style="stop-color:#965D24"/>
			</linearGradient>
			<polygon class="st17" points="187.4,191.6 186.5,191.8 179.1,159.3 178.7,157.4 178.3,155.6 178.7,155.5 178.7,155.5 
				178.7,155.5 179.1,155.4 179.1,155.5 			"/>
		</g>
	</g>
	<linearGradient id="SVGID_14_" gradientUnits="userSpaceOnUse" x1="230.7777" y1="155.4418" x2="231.2117" y2="155.4418">
		<stop  offset="4.469550e-03" style="stop-color:#EAD09A"/>
		<stop  offset="0.1698" style="stop-color:#DFB968"/>
		<stop  offset="0.4201" style="stop-color:#DFB968"/>
		<stop  offset="0.9838" style="stop-color:#965D24"/>
	</linearGradient>
	<path class="st18" d="M231.2,155.5c-0.1,0-0.3,0-0.4,0l0-0.1L231.2,155.5z"/>
	<linearGradient id="SVGID_15_" gradientUnits="userSpaceOnUse" x1="231.2279" y1="155.4439" x2="231.662" y2="155.4439">
		<stop  offset="4.469550e-03" style="stop-color:#EAD09A"/>
		<stop  offset="0.1698" style="stop-color:#DFB968"/>
		<stop  offset="0.4201" style="stop-color:#DFB968"/>
		<stop  offset="0.9838" style="stop-color:#965D24"/>
	</linearGradient>
	<path class="st19" d="M231.7,155.5c0,0-0.1,0-0.2,0c-0.1,0-0.2,0-0.3,0H231.7L231.7,155.5z"/>
	<linearGradient id="SVGID_16_" gradientUnits="userSpaceOnUse" x1="235.4792" y1="153.0789" x2="237.9333" y2="153.0789">
		<stop  offset="4.469550e-03" style="stop-color:#EAD09A"/>
		<stop  offset="0.1698" style="stop-color:#DFB968"/>
		<stop  offset="0.4201" style="stop-color:#DFB968"/>
		<stop  offset="0.9838" style="stop-color:#965D24"/>
	</linearGradient>
	<path class="st20" d="M237.9,152.7c-0.4,0.4-1,0.7-1.6,0.7c-0.3,0-0.6-0.1-0.8-0.2c0.2-0.1,0.3-0.2,0.5-0.3l0,0L237.9,152.7z"/>
	<linearGradient id="SVGID_17_" gradientUnits="userSpaceOnUse" x1="234.0919" y1="151.2109" x2="238.5338" y2="151.2109">
		<stop  offset="4.469550e-03" style="stop-color:#EAD09A"/>
		<stop  offset="0.1698" style="stop-color:#DFB968"/>
		<stop  offset="0.4201" style="stop-color:#DFB968"/>
		<stop  offset="0.9838" style="stop-color:#965D24"/>
	</linearGradient>
	<path class="st21" d="M238.5,151.2c0,0.6-0.2,1.1-0.6,1.5c-0.4,0.4-1,0.7-1.6,0.7c-0.3,0-0.6-0.1-0.8-0.2c0,0,0,0,0,0
		c-0.6-0.3-1.1-0.8-1.3-1.4c0,0,0,0,0-0.1c-0.1-0.2-0.1-0.4-0.1-0.6c0-1.2,1-2.2,2.2-2.2C237.5,149,238.5,150,238.5,151.2z"/>
	<linearGradient id="SVGID_18_" gradientUnits="userSpaceOnUse" x1="234.0108" y1="152.5268" x2="236.4195" y2="152.5268">
		<stop  offset="4.469550e-03" style="stop-color:#EAD09A"/>
		<stop  offset="0.1698" style="stop-color:#DFB968"/>
		<stop  offset="0.4201" style="stop-color:#DFB968"/>
		<stop  offset="0.9838" style="stop-color:#965D24"/>
	</linearGradient>
	<path class="st22" d="M236.4,152.3c0,0,0,0.6-0.9,1c0,0-2-0.5-1.3-1.5C234.4,152.7,235.9,153.3,236.4,152.3z"/>
	<g>
		<g>
			<linearGradient id="SVGID_19_" gradientUnits="userSpaceOnUse" x1="230.7856" y1="173.585" x2="231.6525" y2="173.585">
				<stop  offset="4.469550e-03" style="stop-color:#EAD09A"/>
				<stop  offset="0.1698" style="stop-color:#DFB968"/>
				<stop  offset="0.4201" style="stop-color:#DFB968"/>
				<stop  offset="0.9838" style="stop-color:#965D24"/>
			</linearGradient>
			<rect x="230.8" y="155.5" class="st23" width="0.9" height="36.2"/>
		</g>
		<g>
			<linearGradient id="SVGID_20_" gradientUnits="userSpaceOnUse" x1="230.7979" y1="173.5847" x2="239.8764" y2="173.5847">
				<stop  offset="4.469550e-03" style="stop-color:#EAD09A"/>
				<stop  offset="0.1698" style="stop-color:#DFB968"/>
				<stop  offset="0.4201" style="stop-color:#DFB968"/>
				<stop  offset="0.9838" style="stop-color:#965D24"/>
			</linearGradient>
			<polygon class="st24" points="239.9,191.6 239,191.8 231.7,159.3 231.2,157.4 230.8,155.6 231.2,155.5 231.2,155.5 231.2,155.5 
				231.6,155.4 231.7,155.5 			"/>
		</g>
		<g>
			<linearGradient id="SVGID_21_" gradientUnits="userSpaceOnUse" x1="222.5632" y1="173.5847" x2="231.6417" y2="173.5847">
				<stop  offset="4.469550e-03" style="stop-color:#EAD09A"/>
				<stop  offset="0.1698" style="stop-color:#DFB968"/>
				<stop  offset="0.4201" style="stop-color:#DFB968"/>
				<stop  offset="0.9838" style="stop-color:#965D24"/>
			</linearGradient>
			<polygon class="st25" points="231.6,155.6 231.2,157.4 230.8,159.3 223.4,191.8 222.6,191.6 230.8,155.5 230.8,155.4 
				231.2,155.5 231.2,155.5 231.2,155.5 			"/>
		</g>
	</g>
</g>
<g>
	<linearGradient id="SVGID_22_" gradientUnits="userSpaceOnUse" x1="194.3439" y1="137.4646" x2="215.5748" y2="137.4646">
		<stop  offset="4.469550e-03" style="stop-color:#EAD09A"/>
		<stop  offset="0.1698" style="stop-color:#DFB968"/>
		<stop  offset="0.4201" style="stop-color:#DFB968"/>
		<stop  offset="0.9838" style="stop-color:#965D24"/>
	</linearGradient>
	<path class="st26" d="M213.8,133.4c-1.5,0.3-2.6-0.5-3.9-1c-1.5-0.6-3-1.3-4.5-2c-0.4-0.2-0.8-0.2-1.2,0c-3.1,1.4-6.2,2.7-9.3,4.1
		c-0.2,0.1-0.4,0.2-0.7,0.3c0.2,0.1,0.3,0.2,0.4,0.2c3.2,1.4,6.5,2.9,9.8,4.3c0.3,0.1,0.6,0.1,0.9,0c2.4-1,4.8-2.1,7.2-3.2
		c0.2-0.1,0.4-0.2,0.6-0.2c0,0.8-0.1,1.5-0.1,2.3c0.4,0,0.7,0,1-0.1C214,136.6,213.9,135.1,213.8,133.4z M211.2,144.6
		c0-2.4,0-4.7,0-7c-0.1,0-0.1,0-0.1,0c-1.4,0.6-2.9,1.1-4.3,1.9c-1.4,0.8-2.5,0.7-3.9,0c-1.4-0.8-2.9-1.3-4.4-1.9c0,2.4,0,4.7,0,7.1
		C202.8,143.5,207,143.5,211.2,144.6z M214.2,134.3c0,0.4,0,0.8,0,1.2c0.5-0.2,0.9-0.4,1.4-0.6C215.1,134.7,214.7,134.5,214.2,134.3
		z"/>
	<linearGradient id="SVGID_23_" gradientUnits="userSpaceOnUse" x1="194.3439" y1="134.8935" x2="214.133" y2="134.8935">
		<stop  offset="4.469550e-03" style="stop-color:#EAD09A"/>
		<stop  offset="0.1698" style="stop-color:#DFB968"/>
		<stop  offset="0.4201" style="stop-color:#DFB968"/>
		<stop  offset="0.9838" style="stop-color:#965D24"/>
	</linearGradient>
	<path class="st27" d="M213.8,133.4c0.1,1.6,0.2,3.2,0.3,4.8c-0.3,0-0.6,0-1,0.1c0-0.8,0.1-1.5,0.1-2.3c-0.2,0.1-0.4,0.1-0.6,0.2
		c-2.4,1.1-4.8,2.1-7.2,3.2c-0.3,0.1-0.7,0.1-0.9,0c-3.3-1.4-6.5-2.8-9.8-4.3c-0.1-0.1-0.2-0.1-0.4-0.2c0.3-0.1,0.5-0.3,0.7-0.3
		c3.1-1.4,6.2-2.7,9.3-4.1c0.4-0.2,0.8-0.2,1.2,0c1.5,0.7,3,1.3,4.5,2C211.2,133,212.4,133.8,213.8,133.4z"/>
	<linearGradient id="SVGID_24_" gradientUnits="userSpaceOnUse" x1="198.6096" y1="141.0621" x2="211.2498" y2="141.0621">
		<stop  offset="4.469550e-03" style="stop-color:#EAD09A"/>
		<stop  offset="0.1698" style="stop-color:#DFB968"/>
		<stop  offset="0.4201" style="stop-color:#DFB968"/>
		<stop  offset="0.9838" style="stop-color:#965D24"/>
	</linearGradient>
	<path class="st28" d="M211.2,144.6c-4.2-1.1-8.4-1.1-12.6,0c0-2.3,0-4.7,0-7.1c1.5,0.7,3,1.2,4.4,1.9c1.4,0.7,2.5,0.8,3.9,0
		c1.4-0.8,2.8-1.3,4.3-1.9c0,0,0,0,0.1,0C211.2,139.9,211.2,142.2,211.2,144.6z"/>
	<linearGradient id="SVGID_25_" gradientUnits="userSpaceOnUse" x1="214.8954" y1="124.6809" x2="214.8954" y2="157.1915">
		<stop  offset="4.469550e-03" style="stop-color:#EAD09A"/>
		<stop  offset="0.1698" style="stop-color:#DFB968"/>
		<stop  offset="0.4201" style="stop-color:#DFB968"/>
		<stop  offset="0.9838" style="stop-color:#965D24"/>
	</linearGradient>
	<path class="st29" d="M214.2,134.3c0.5,0.2,0.8,0.4,1.4,0.6c-0.5,0.2-0.9,0.4-1.4,0.6C214.2,135.1,214.2,134.7,214.2,134.3z"/>
</g>
<g>
	<g>
		<g>
			<linearGradient id="SVGID_26_" gradientUnits="userSpaceOnUse" x1="64.6674" y1="264.3096" x2="168.9283" y2="264.3096">
				<stop  offset="4.469550e-03" style="stop-color:#EAD09A"/>
				<stop  offset="0.1698" style="stop-color:#DFB968"/>
				<stop  offset="0.4201" style="stop-color:#DFB968"/>
				<stop  offset="0.9838" style="stop-color:#965D24"/>
			</linearGradient>
			<path class="st30" d="M167.2,266.1l-102.5-1.8l102.5-1.8C169.5,262.6,169.5,266,167.2,266.1L167.2,266.1z"/>
			<linearGradient id="SVGID_27_" gradientUnits="userSpaceOnUse" x1="245.303" y1="264.3096" x2="350.8167" y2="264.3096">
				<stop  offset="1.620000e-02" style="stop-color:#965D24"/>
				<stop  offset="0.5799" style="stop-color:#DFB968"/>
				<stop  offset="0.8302" style="stop-color:#DFB968"/>
				<stop  offset="0.9955" style="stop-color:#EAD09A"/>
			</linearGradient>
			<path class="st31" d="M247.1,262.6l103.8,1.8l-103.8,1.8C244.7,266,244.7,262.6,247.1,262.6L247.1,262.6z"/>
		</g>
	</g>
</g>
<g>
	<linearGradient id="SVGID_28_" gradientUnits="userSpaceOnUse" x1="-92.824" y1="290.9929" x2="740.8092" y2="294.3462">
		<stop  offset="4.469550e-03" style="stop-color:#EAD09A"/>
		<stop  offset="0.1698" style="stop-color:#DFB968"/>
		<stop  offset="0.4201" style="stop-color:#DFB968"/>
		<stop  offset="0.9838" style="stop-color:#965D24"/>
	</linearGradient>
	<path class="st32" d="M53.4,289.2c0-4.2,0-4.9-0.1-5.8c-0.1-0.9-0.3-1.4-1.2-1.6c-0.2-0.1-0.7-0.1-1.1-0.1c-0.3,0-0.5-0.1-0.5-0.2
		s0.2-0.2,0.6-0.2c1.5,0,3.2,0.1,3.8,0.1c0.9,0,3-0.1,3.9-0.1c1.7,0,3.6,0.2,5,1.2c0.8,0.5,1.9,1.9,1.9,3.8c0,2-0.8,3.9-3.6,6.1
		c2.4,3.1,4.3,5.5,5.9,7.2c1.5,1.6,2.7,1.8,3.1,1.9c0.3,0.1,0.5,0.1,0.8,0.1s0.3,0.1,0.3,0.2c0,0.2-0.2,0.3-0.5,0.3h-2.6
		c-1.5,0-2.2-0.1-2.9-0.5c-1.2-0.6-2.2-1.9-3.8-4c-1.1-1.5-2.4-3.4-2.7-3.8c-0.1-0.2-0.3-0.2-0.5-0.2l-2.4-0.1
		c-0.1,0-0.2,0.1-0.2,0.2v0.4c0,2.5,0,4.7,0.1,5.9c0.1,0.8,0.2,1.4,1.1,1.5c0.4,0.1,1,0.1,1.3,0.1c0.2,0,0.3,0.1,0.3,0.2
		c0,0.2-0.2,0.3-0.5,0.3c-1.6,0-3.6-0.1-4-0.1c-0.5,0-2.2,0.1-3.3,0.1c-0.4,0-0.5-0.1-0.5-0.3c0-0.1,0.1-0.2,0.4-0.2
		c0.4,0,0.7-0.1,1-0.1c0.5-0.1,0.7-0.7,0.8-1.5c0.1-1.2,0.1-3.3,0.1-5.8V289.2z M56.6,291.3c0,0.3,0.1,0.4,0.2,0.5
		c0.6,0.2,1.4,0.3,2.1,0.3c1.1,0,1.5-0.1,1.9-0.5c0.8-0.6,1.6-1.9,1.6-4.1c0-3.9-2.6-5-4.2-5c-0.7,0-1.2,0-1.5,0.1
		c-0.2,0.1-0.2,0.2-0.2,0.4V291.3z"/>
	<linearGradient id="SVGID_29_" gradientUnits="userSpaceOnUse" x1="-92.8225" y1="290.6178" x2="740.8107" y2="293.9711">
		<stop  offset="4.469550e-03" style="stop-color:#EAD09A"/>
		<stop  offset="0.1698" style="stop-color:#DFB968"/>
		<stop  offset="0.4201" style="stop-color:#DFB968"/>
		<stop  offset="0.9838" style="stop-color:#965D24"/>
	</linearGradient>
	<path class="st33" d="M75.1,294.8c-0.1,0-0.2,0.1-0.2,0.2l-1.5,3.9c-0.3,0.7-0.4,1.3-0.4,1.7c0,0.5,0.2,0.8,1.1,0.8h0.4
		c0.3,0,0.4,0.1,0.4,0.2c0,0.2-0.2,0.3-0.5,0.3c-0.9,0-2.1-0.1-2.9-0.1c-0.3,0-1.8,0.1-3.2,0.1c-0.4,0-0.5-0.1-0.5-0.3
		c0-0.2,0.1-0.2,0.3-0.2c0.2,0,0.6,0,0.8-0.1c1.3-0.2,1.8-1.1,2.3-2.5l6.9-17.2c0.3-0.8,0.5-1.1,0.8-1.1c0.2,0,0.4,0.2,0.7,0.9
		c0.7,1.5,5,12.7,6.8,16.8c1,2.5,1.8,2.8,2.4,3c0.4,0.1,0.8,0.1,1.2,0.1c0.2,0,0.4,0,0.4,0.2c0,0.2-0.2,0.3-1.3,0.3
		c-1,0-3,0-5.2-0.1c-0.5,0-0.8,0-0.8-0.2c0-0.2,0.1-0.2,0.4-0.2c0.2-0.1,0.4-0.3,0.2-0.6l-2.2-5.8c-0.1-0.1-0.1-0.2-0.3-0.2H75.1z
		 M80.7,293.4c0.1,0,0.2-0.1,0.1-0.2l-2.5-6.8c0-0.1-0.1-0.2-0.1-0.2s-0.1,0.1-0.2,0.2l-2.5,6.7c0,0.1,0,0.2,0.1,0.2H80.7z"/>
	<linearGradient id="SVGID_30_" gradientUnits="userSpaceOnUse" x1="-92.8232" y1="290.8075" x2="740.8099" y2="294.1608">
		<stop  offset="4.469550e-03" style="stop-color:#EAD09A"/>
		<stop  offset="0.1698" style="stop-color:#DFB968"/>
		<stop  offset="0.4201" style="stop-color:#DFB968"/>
		<stop  offset="0.9838" style="stop-color:#965D24"/>
	</linearGradient>
	<path class="st34" d="M90.2,291.6c0-4.7,3.1-10.7,11.3-10.7c6.8,0,11.1,4,11.1,10.2s-4.4,11.2-11.3,11.2
		C93.4,302.3,90.2,296.4,90.2,291.6z M108.8,292.1c0-6.1-3.5-9.9-8-9.9c-3.2,0-6.7,1.8-6.7,8.6c0,5.7,3.2,10.2,8.4,10.2
		C104.3,301,108.8,300,108.8,292.1z"/>
	<linearGradient id="SVGID_31_" gradientUnits="userSpaceOnUse" x1="-92.7888" y1="282.2595" x2="740.8443" y2="285.6128">
		<stop  offset="4.469550e-03" style="stop-color:#EAD09A"/>
		<stop  offset="0.1698" style="stop-color:#DFB968"/>
		<stop  offset="0.4201" style="stop-color:#DFB968"/>
		<stop  offset="0.9838" style="stop-color:#965D24"/>
	</linearGradient>
	<path class="st35" d="M115.8,280.1c-0.3-0.3-0.3-0.4-0.3-0.5c0-0.1,0.2-0.2,0.3-0.2c0.5,0,1.8,0.4,2.3,0.5c0.7,0.2,0.8,0.4,0.8,0.8
		c0,1.7-1.8,4.6-3,5.9c-0.2,0.2-0.3,0.2-0.4,0.2c-0.1,0-0.2-0.1-0.2-0.2c0-0.1,0-0.1,0.1-0.4c0.5-1,1.1-2.6,1.1-4.3
		C116.5,281.1,116.1,280.4,115.8,280.1z"/>
	<linearGradient id="SVGID_32_" gradientUnits="userSpaceOnUse" x1="-92.8228" y1="290.705" x2="740.8104" y2="294.0583">
		<stop  offset="4.469550e-03" style="stop-color:#EAD09A"/>
		<stop  offset="0.1698" style="stop-color:#DFB968"/>
		<stop  offset="0.4201" style="stop-color:#DFB968"/>
		<stop  offset="0.9838" style="stop-color:#965D24"/>
	</linearGradient>
	<path class="st36" d="M121.7,301.6c-0.4-0.2-0.5-0.3-0.5-0.9c0-1.5,0.1-3.2,0.1-3.6c0-0.4,0.1-0.7,0.3-0.7c0.2,0,0.3,0.2,0.3,0.5
		c0,0.4,0.1,0.9,0.2,1.4c0.6,2,2.2,2.8,3.9,2.8c2.5,0,3.7-1.7,3.7-3.1c0-1.3-0.4-2.6-2.7-4.4l-1.3-1c-3-2.4-4.1-4.3-4.1-6.5
		c0-3,2.5-5.2,6.3-5.2c1.8,0,2.9,0.3,3.6,0.5c0.2,0.1,0.4,0.1,0.4,0.3c0,0.4-0.1,1.2-0.1,3.3c0,0.6-0.1,0.8-0.3,0.8
		c-0.2,0-0.3-0.2-0.3-0.5c0-0.2-0.1-1.1-0.7-1.8c-0.4-0.5-1.2-1.3-3-1.3c-2,0-3.3,1.2-3.3,2.8c0,1.3,0.6,2.2,2.9,3.9l0.8,0.6
		c3.3,2.5,4.5,4.4,4.5,7c0,1.6-0.6,3.5-2.6,4.8c-1.4,0.9-2.9,1.1-4.4,1.1C124.1,302.3,122.9,302.1,121.7,301.6z"/>
	<linearGradient id="SVGID_33_" gradientUnits="userSpaceOnUse" x1="-92.8225" y1="290.6333" x2="740.8106" y2="293.9866">
		<stop  offset="4.469550e-03" style="stop-color:#EAD09A"/>
		<stop  offset="0.1698" style="stop-color:#DFB968"/>
		<stop  offset="0.4201" style="stop-color:#DFB968"/>
		<stop  offset="0.9838" style="stop-color:#965D24"/>
	</linearGradient>
	<path class="st37" d="M150.8,294c0,3.5,0,5.4,0.6,5.9c0.5,0.4,1.2,0.6,3.3,0.6c1.5,0,2.5,0,3.2-0.8c0.3-0.4,0.7-1.1,0.7-1.6
		c0-0.2,0.1-0.4,0.3-0.4c0.2,0,0.2,0.1,0.2,0.5c0,0.3-0.2,2.4-0.4,3.1c-0.2,0.6-0.3,0.7-1.7,0.7c-2,0-3.4-0.1-4.6-0.1
		c-1.2-0.1-2.2-0.1-3.3-0.1c-0.3,0-0.9,0-1.6,0c-0.6,0-1.3,0.1-1.9,0.1c-0.4,0-0.5-0.1-0.5-0.3c0-0.1,0.1-0.2,0.4-0.2
		c0.4,0,0.7-0.1,1-0.1c0.5-0.1,0.7-0.7,0.8-1.5c0.1-1.2,0.1-3.3,0.1-5.8v-4.8c0-4.2,0-4.9-0.1-5.8c-0.1-0.9-0.3-1.4-1.2-1.6
		c-0.2-0.1-0.5-0.1-0.9-0.1c-0.3,0-0.5-0.1-0.5-0.2s0.2-0.2,0.6-0.2c1.3,0,3,0.1,3.8,0.1c0.7,0,2.7-0.1,3.7-0.1
		c0.4,0,0.6,0.1,0.6,0.2s-0.2,0.2-0.5,0.2c-0.3,0-0.7,0-1.1,0.1c-0.7,0.1-1,0.6-1,1.6c-0.1,0.9-0.1,1.6-0.1,5.8V294z"/>
	<linearGradient id="SVGID_34_" gradientUnits="userSpaceOnUse" x1="-92.821" y1="290.254" x2="740.8121" y2="293.6073">
		<stop  offset="4.469550e-03" style="stop-color:#EAD09A"/>
		<stop  offset="0.1698" style="stop-color:#DFB968"/>
		<stop  offset="0.4201" style="stop-color:#DFB968"/>
		<stop  offset="0.9838" style="stop-color:#965D24"/>
	</linearGradient>
	<path class="st38" d="M165.6,294.8c-0.1,0-0.2,0.1-0.2,0.2l-1.5,3.9c-0.3,0.7-0.4,1.3-0.4,1.7c0,0.5,0.2,0.8,1.1,0.8h0.4
		c0.3,0,0.4,0.1,0.4,0.2c0,0.2-0.2,0.3-0.5,0.3c-0.9,0-2.1-0.1-2.9-0.1c-0.3,0-1.8,0.1-3.2,0.1c-0.4,0-0.5-0.1-0.5-0.3
		c0-0.2,0.1-0.2,0.3-0.2c0.2,0,0.6,0,0.8-0.1c1.3-0.2,1.8-1.1,2.3-2.5l6.9-17.2c0.3-0.8,0.5-1.1,0.8-1.1c0.2,0,0.4,0.2,0.7,0.9
		c0.7,1.5,5,12.7,6.8,16.8c1,2.5,1.8,2.8,2.4,3c0.4,0.1,0.8,0.1,1.2,0.1c0.2,0,0.4,0,0.4,0.2c0,0.2-0.2,0.3-1.3,0.3
		c-1,0-3,0-5.2-0.1c-0.5,0-0.8,0-0.8-0.2c0-0.2,0.1-0.2,0.4-0.2c0.2-0.1,0.4-0.3,0.2-0.6L172,295c-0.1-0.1-0.1-0.2-0.3-0.2H165.6z
		 M171.2,293.4c0.1,0,0.2-0.1,0.1-0.2l-2.5-6.8c0-0.1-0.1-0.2-0.1-0.2c-0.1,0-0.1,0.1-0.2,0.2l-2.5,6.7c0,0.1,0,0.2,0.1,0.2H171.2z"
		/>
	<linearGradient id="SVGID_35_" gradientUnits="userSpaceOnUse" x1="-92.8225" y1="290.6136" x2="740.8107" y2="293.9669">
		<stop  offset="4.469550e-03" style="stop-color:#EAD09A"/>
		<stop  offset="0.1698" style="stop-color:#DFB968"/>
		<stop  offset="0.4201" style="stop-color:#DFB968"/>
		<stop  offset="0.9838" style="stop-color:#965D24"/>
	</linearGradient>
	<path class="st39" d="M180,283.9c-0.3-1-0.6-1.7-1-1.9c-0.3-0.2-0.8-0.2-1.1-0.2c-0.3,0-0.4,0-0.4-0.2c0-0.2,0.2-0.2,0.6-0.2
		c1.4,0,2.9,0.1,3.2,0.1c0.2,0,1.5-0.1,3-0.1c0.4,0,0.6,0.1,0.6,0.2c0,0.2-0.2,0.2-0.5,0.2c-0.2,0-0.5,0-0.7,0.1
		c-0.2,0.1-0.3,0.3-0.3,0.6c0,0.4,0.3,1.3,0.6,2.5c0.5,1.8,3,10.1,3.5,11.6h0.1l5.3-14.3c0.3-0.8,0.5-1,0.7-1c0.3,0,0.4,0.4,0.8,1.3
		l5.7,13.8h0.1c0.5-1.8,2.7-9.1,3.6-12.3c0.2-0.6,0.3-1.2,0.3-1.6c0-0.4-0.2-0.8-1.3-0.8c-0.3,0-0.5-0.1-0.5-0.2
		c0-0.2,0.2-0.2,0.6-0.2c1.5,0,2.6,0.1,2.8,0.1c0.2,0,1.4-0.1,2.3-0.1c0.3,0,0.5,0.1,0.5,0.2c0,0.2-0.1,0.3-0.4,0.3
		c-0.3,0-0.7,0-1,0.1c-0.7,0.2-1,1.3-1.5,2.9c-1.3,3.5-4.1,12.2-5.5,16.3c-0.3,1-0.4,1.3-0.8,1.3c-0.3,0-0.4-0.3-0.8-1.3l-5.7-13.7
		h-0.1c-0.5,1.4-4.2,11.1-5.3,13.6c-0.5,1.1-0.7,1.5-1,1.5c-0.3,0-0.4-0.3-0.6-1L180,283.9z"/>
	<linearGradient id="SVGID_36_" gradientUnits="userSpaceOnUse" x1="-92.8201" y1="290.0293" x2="740.813" y2="293.3826">
		<stop  offset="4.469550e-03" style="stop-color:#EAD09A"/>
		<stop  offset="0.1698" style="stop-color:#DFB968"/>
		<stop  offset="0.4201" style="stop-color:#DFB968"/>
		<stop  offset="0.9838" style="stop-color:#965D24"/>
	</linearGradient>
	<path class="st40" d="M221.4,294.8c-0.1,0-0.2,0.1-0.2,0.2l-1.5,3.9c-0.3,0.7-0.4,1.3-0.4,1.7c0,0.5,0.2,0.8,1.1,0.8h0.4
		c0.3,0,0.4,0.1,0.4,0.2c0,0.2-0.2,0.3-0.5,0.3c-0.9,0-2.1-0.1-2.9-0.1c-0.3,0-1.8,0.1-3.2,0.1c-0.4,0-0.5-0.1-0.5-0.3
		c0-0.2,0.1-0.2,0.3-0.2c0.2,0,0.6,0,0.8-0.1c1.3-0.2,1.8-1.1,2.3-2.5l6.9-17.2c0.3-0.8,0.5-1.1,0.8-1.1c0.2,0,0.4,0.2,0.7,0.9
		c0.7,1.5,5,12.7,6.8,16.8c1,2.5,1.8,2.8,2.4,3c0.4,0.1,0.8,0.1,1.2,0.1c0.2,0,0.4,0,0.4,0.2c0,0.2-0.2,0.3-1.3,0.3
		c-1,0-3,0-5.2-0.1c-0.5,0-0.8,0-0.8-0.2c0-0.2,0.1-0.2,0.4-0.2c0.2-0.1,0.4-0.3,0.2-0.6l-2.2-5.8c-0.1-0.1-0.1-0.2-0.3-0.2H221.4z
		 M227,293.4c0.1,0,0.2-0.1,0.1-0.2l-2.5-6.8c0-0.1-0.1-0.2-0.1-0.2c-0.1,0-0.1,0.1-0.2,0.2l-2.5,6.7c0,0.1,0,0.2,0.1,0.2H227z"/>
	<linearGradient id="SVGID_37_" gradientUnits="userSpaceOnUse" x1="-92.8208" y1="290.2143" x2="740.8123" y2="293.5676">
		<stop  offset="4.469550e-03" style="stop-color:#EAD09A"/>
		<stop  offset="0.1698" style="stop-color:#DFB968"/>
		<stop  offset="0.4201" style="stop-color:#DFB968"/>
		<stop  offset="0.9838" style="stop-color:#965D24"/>
	</linearGradient>
	<path class="st41" d="M239.9,299.3c-2.7-2.4-3.4-5.4-3.4-8.1c0-1.9,0.6-5.1,3.2-7.5c2-1.8,4.6-2.9,8.7-2.9c1.7,0,2.7,0.1,4,0.3
		c1,0.1,1.9,0.4,2.7,0.5c0.3,0,0.4,0.2,0.4,0.3c0,0.2-0.1,0.5-0.1,1.5c-0.1,0.9,0,2.4-0.1,3c0,0.4-0.1,0.6-0.3,0.6
		c-0.2,0-0.3-0.2-0.3-0.6c0-0.8-0.4-1.8-1.1-2.5c-0.9-1-3-1.7-5.6-1.7c-2.4,0-3.9,0.6-5.1,1.7c-2,1.8-2.5,4.4-2.5,7.1
		c0,6.5,5,9.8,8.6,9.8c2.4,0,3.9-0.3,5-1.5c0.5-0.5,0.8-1.3,0.9-1.8c0.1-0.4,0.1-0.5,0.4-0.5c0.2,0,0.2,0.2,0.2,0.4
		c0,0.3-0.3,2.7-0.6,3.6c-0.1,0.5-0.2,0.6-0.7,0.8c-1.1,0.4-3.2,0.6-4.9,0.6C245.6,302.3,242.4,301.5,239.9,299.3z"/>
	<linearGradient id="SVGID_38_" gradientUnits="userSpaceOnUse" x1="-92.8194" y1="289.8607" x2="740.8137" y2="293.214">
		<stop  offset="4.469550e-03" style="stop-color:#EAD09A"/>
		<stop  offset="0.1698" style="stop-color:#DFB968"/>
		<stop  offset="0.4201" style="stop-color:#DFB968"/>
		<stop  offset="0.9838" style="stop-color:#965D24"/>
	</linearGradient>
	<path class="st42" d="M263.4,294.8c-0.1,0-0.2,0.1-0.2,0.2l-1.5,3.9c-0.3,0.7-0.4,1.3-0.4,1.7c0,0.5,0.2,0.8,1.1,0.8h0.4
		c0.3,0,0.4,0.1,0.4,0.2c0,0.2-0.2,0.3-0.5,0.3c-0.9,0-2.1-0.1-2.9-0.1c-0.3,0-1.8,0.1-3.2,0.1c-0.4,0-0.5-0.1-0.5-0.3
		c0-0.2,0.1-0.2,0.3-0.2c0.2,0,0.6,0,0.8-0.1c1.3-0.2,1.8-1.1,2.3-2.5l6.9-17.2c0.3-0.8,0.5-1.1,0.8-1.1c0.2,0,0.4,0.2,0.7,0.9
		c0.7,1.5,5,12.7,6.8,16.8c1,2.5,1.8,2.8,2.4,3c0.4,0.1,0.8,0.1,1.2,0.1c0.2,0,0.4,0,0.4,0.2c0,0.2-0.2,0.3-1.3,0.3
		c-1,0-3,0-5.2-0.1c-0.5,0-0.8,0-0.8-0.2c0-0.2,0.1-0.2,0.4-0.2c0.2-0.1,0.4-0.3,0.2-0.6l-2.2-5.8c-0.1-0.1-0.1-0.2-0.3-0.2H263.4z
		 M268.9,293.4c0.1,0,0.2-0.1,0.1-0.2l-2.5-6.8c0-0.1-0.1-0.2-0.1-0.2c-0.1,0-0.1,0.1-0.2,0.2l-2.5,6.7c0,0.1,0,0.2,0.1,0.2H268.9z"
		/>
	<linearGradient id="SVGID_39_" gradientUnits="userSpaceOnUse" x1="-92.8207" y1="290.178" x2="740.8124" y2="293.5313">
		<stop  offset="4.469550e-03" style="stop-color:#EAD09A"/>
		<stop  offset="0.1698" style="stop-color:#DFB968"/>
		<stop  offset="0.4201" style="stop-color:#DFB968"/>
		<stop  offset="0.9838" style="stop-color:#965D24"/>
	</linearGradient>
	<path class="st43" d="M281.4,289.2c0-4.2,0-4.9-0.1-5.8c-0.1-0.9-0.3-1.4-1.2-1.6c-0.2-0.1-0.7-0.1-1.1-0.1c-0.3,0-0.5-0.1-0.5-0.2
		s0.2-0.2,0.6-0.2c1.5,0,3.2,0.1,3.9,0.1c0.8,0,2.6-0.1,4.2-0.1c3.4,0,8,0,11,3.1c1.4,1.4,2.7,3.7,2.7,7c0,3.5-1.5,6.1-3,7.6
		c-1.3,1.3-4.1,3.2-9.2,3.2c-1,0-2.1-0.1-3.2-0.2s-2-0.2-2.7-0.2c-0.3,0-0.9,0-1.6,0c-0.6,0-1.3,0.1-1.9,0.1c-0.4,0-0.5-0.1-0.5-0.3
		c0-0.1,0.1-0.2,0.4-0.2c0.4,0,0.7-0.1,1-0.1c0.5-0.1,0.7-0.7,0.8-1.5c0.1-1.2,0.1-3.3,0.1-5.8V289.2z M284.9,292.2
		c0,2.9,0,5,0.1,5.5c0,0.7,0.1,1.8,0.3,2.1c0.4,0.5,1.4,1.1,3.6,1.1c2.8,0,4.7-0.5,6.3-2c1.8-1.5,2.3-4,2.3-6.8
		c0-3.5-1.5-5.7-2.6-6.8c-2.5-2.4-5.6-2.7-7.8-2.7c-0.5,0-1.6,0.1-1.8,0.2c-0.2,0.1-0.3,0.2-0.3,0.5c0,0.9,0,3.3,0,5.5V292.2z"/>
	<linearGradient id="SVGID_40_" gradientUnits="userSpaceOnUse" x1="-92.8195" y1="289.8737" x2="740.8137" y2="293.2271">
		<stop  offset="4.469550e-03" style="stop-color:#EAD09A"/>
		<stop  offset="0.1698" style="stop-color:#DFB968"/>
		<stop  offset="0.4201" style="stop-color:#DFB968"/>
		<stop  offset="0.9838" style="stop-color:#965D24"/>
	</linearGradient>
	<path class="st44" d="M306.8,289.2c0-4.2,0-4.9-0.1-5.8c-0.1-0.9-0.3-1.4-1.2-1.6c-0.2-0.1-0.7-0.1-1.1-0.1c-0.3,0-0.5-0.1-0.5-0.2
		s0.2-0.2,0.6-0.2c0.7,0,1.5,0,2.2,0c0.7,0,1.3,0.1,1.7,0.1c0.9,0,6.3,0,6.8,0c0.5-0.1,1-0.1,1.2-0.2c0.1,0,0.3-0.1,0.4-0.1
		s0.2,0.1,0.2,0.2c0,0.2-0.1,0.5-0.2,1.8c0,0.3-0.1,1.5-0.1,1.8c0,0.1-0.1,0.3-0.3,0.3c-0.2,0-0.2-0.1-0.2-0.4c0-0.2,0-0.7-0.2-1
		c-0.2-0.5-0.5-0.8-1.8-1c-0.5-0.1-3.3-0.1-3.9-0.1c-0.1,0-0.2,0.1-0.2,0.3v6.9c0,0.2,0,0.3,0.2,0.3c0.6,0,3.8,0,4.4-0.1
		c0.7-0.1,1.1-0.1,1.3-0.4c0.2-0.2,0.3-0.4,0.4-0.4c0.1,0,0.2,0.1,0.2,0.2s-0.1,0.6-0.2,2c0,0.5-0.1,1.6-0.1,1.8
		c0,0.2,0,0.5-0.2,0.5c-0.2,0-0.2-0.1-0.2-0.2c0-0.3,0-0.6-0.1-1c-0.1-0.5-0.5-1-1.5-1.1c-0.5-0.1-3.2-0.1-3.9-0.1
		c-0.1,0-0.2,0.1-0.2,0.3v2.2c0,0.9,0,3.5,0,4.2c0.1,1.9,0.5,2.3,3.3,2.3c0.7,0,1.9,0,2.6-0.3c0.7-0.3,1-0.9,1.2-2
		c0.1-0.3,0.1-0.4,0.3-0.4c0.2,0,0.2,0.2,0.2,0.5c0,0.6-0.2,2.5-0.4,3c-0.2,0.7-0.4,0.7-1.5,0.7c-2.1,0-3.6-0.1-4.7-0.1
		c-1.2-0.1-2-0.1-2.8-0.1c-0.3,0-0.9,0-1.6,0c-0.6,0-1.3,0.1-1.9,0.1c-0.4,0-0.5-0.1-0.5-0.3c0-0.1,0.1-0.2,0.4-0.2
		c0.4,0,0.7-0.1,1-0.1c0.5-0.1,0.7-0.7,0.8-1.5c0.1-1.2,0.1-3.3,0.1-5.8V289.2z"/>
	<linearGradient id="SVGID_41_" gradientUnits="userSpaceOnUse" x1="-92.8183" y1="289.5818" x2="740.8149" y2="292.9351">
		<stop  offset="4.469550e-03" style="stop-color:#EAD09A"/>
		<stop  offset="0.1698" style="stop-color:#DFB968"/>
		<stop  offset="0.4201" style="stop-color:#DFB968"/>
		<stop  offset="0.9838" style="stop-color:#965D24"/>
	</linearGradient>
	<path class="st45" d="M325.1,281.3c0.1-0.5,0.2-0.7,0.5-0.7c0.2,0,0.4,0.1,0.7,0.8l7.5,15.4l7.5-15.6c0.2-0.4,0.4-0.7,0.6-0.7
		c0.2,0,0.4,0.3,0.5,0.8l2.5,16.9c0.2,1.7,0.5,2.5,1.3,2.8c0.8,0.2,1.3,0.3,1.7,0.3c0.2,0,0.4,0,0.4,0.2c0,0.2-0.3,0.3-0.7,0.3
		c-0.7,0-4.5-0.1-5.6-0.2c-0.6-0.1-0.8-0.1-0.8-0.3c0-0.1,0.1-0.2,0.3-0.3c0.2-0.1,0.2-0.4,0.1-1.2l-1.6-12.1h-0.1l-6,12.4
		c-0.6,1.3-0.8,1.5-1,1.5c-0.2,0-0.5-0.5-1-1.4c-0.7-1.3-2.8-5.5-3.1-6.2c-0.2-0.6-1.9-4-2.8-6.1h-0.1l-1.4,10.9
		c-0.1,0.5-0.1,0.8-0.1,1.3c0,0.5,0.4,0.8,0.8,0.9c0.5,0.1,0.9,0.1,1.2,0.1c0.2,0,0.4,0.1,0.4,0.2c0,0.2-0.2,0.3-0.7,0.3
		c-1.2,0-2.4-0.1-2.9-0.1c-0.5,0-1.8,0.1-2.7,0.1c-0.3,0-0.5-0.1-0.5-0.3c0-0.1,0.2-0.2,0.4-0.2c0.2,0,0.4,0,0.8-0.1
		c0.8-0.2,1-1.2,1.1-2.2L325.1,281.3z"/>
	<linearGradient id="SVGID_42_" gradientUnits="userSpaceOnUse" x1="-92.8191" y1="289.767" x2="740.8141" y2="293.1203">
		<stop  offset="4.469550e-03" style="stop-color:#EAD09A"/>
		<stop  offset="0.1698" style="stop-color:#DFB968"/>
		<stop  offset="0.4201" style="stop-color:#DFB968"/>
		<stop  offset="0.9838" style="stop-color:#965D24"/>
	</linearGradient>
	<path class="st46" d="M354.9,294.8c0-1.5-0.3-2.1-0.6-2.9c-0.2-0.4-3.9-6.5-4.8-7.9c-0.7-1-1.4-1.7-1.9-2c-0.4-0.2-0.8-0.4-1.2-0.4
		c-0.2,0-0.4-0.1-0.4-0.2c0-0.2,0.2-0.2,0.5-0.2c0.5,0,2.5,0.1,3.5,0.1c0.6,0,1.7-0.1,2.9-0.1c0.3,0,0.4,0.1,0.4,0.2
		s-0.2,0.2-0.6,0.3c-0.2,0.1-0.4,0.3-0.4,0.5c0,0.2,0.1,0.5,0.3,0.9c0.4,0.8,4.2,7.4,4.7,8.2c0.3-0.7,3.7-6.7,4.1-7.5
		c0.3-0.6,0.4-1.1,0.4-1.4c0-0.3-0.1-0.6-0.6-0.7c-0.2-0.1-0.5-0.1-0.5-0.3c0-0.2,0.1-0.2,0.5-0.2c0.9,0,1.8,0.1,2.6,0.1
		c0.6,0,2.4-0.1,2.9-0.1c0.3,0,0.5,0.1,0.5,0.2c0,0.2-0.2,0.3-0.5,0.3c-0.3,0-0.8,0.1-1.2,0.3c-0.6,0.3-0.9,0.6-1.5,1.3
		c-0.9,1.1-4.7,7.5-5.2,8.7c-0.4,1-0.4,1.8-0.4,2.7v2.2c0,0.4,0,1.6,0.1,2.7c0.1,0.8,0.3,1.4,1.1,1.5c0.4,0.1,1,0.1,1.4,0.1
		c0.3,0,0.4,0.1,0.4,0.2c0,0.2-0.2,0.3-0.6,0.3c-1.7,0-3.5-0.1-4.2-0.1c-0.7,0-2.4,0.1-3.4,0.1c-0.4,0-0.6-0.1-0.6-0.3
		c0-0.1,0.1-0.2,0.4-0.2c0.4,0,0.7-0.1,1-0.1c0.5-0.1,0.8-0.7,0.8-1.5c0.1-1.2,0.1-2.3,0.1-2.7V294.8z"/>
</g>
<g>
	<g>
		<linearGradient id="SVGID_43_" gradientUnits="userSpaceOnUse" x1="207.7553" y1="125.1703" x2="208.09" y2="293.5515">
			<stop  offset="4.469550e-03" style="stop-color:#EAD09A"/>
			<stop  offset="0.1698" style="stop-color:#DFB968"/>
			<stop  offset="0.4201" style="stop-color:#DFB968"/>
			<stop  offset="0.9838" style="stop-color:#965D24"/>
		</linearGradient>
		<path class="st47" d="M281.3,203.6c0.5-0.7,0.9-1.5,1.2-2.3c0.2-0.9,0.4-1.8,0.4-2.8c-1.1,0-2.3,0.6-3.2,2
			c-0.2,0.3-0.4,0.7-0.6,1.1c-0.1,0.3-0.3,0.6-0.4,0.8c0.1-1.4,0.2-2.9,0.2-4.3c1-0.1,2-0.8,2.7-2c0.8-1.3,1.2-3.1,1.2-4.9
			c-1.1,0-2.2,0.6-3,2c-0.4,0.6-0.6,1.3-0.8,2l0-4.3c1-0.1,1.9-0.8,2.6-2c0.8-1.3,1.2-3.1,1.1-4.9c-1.1,0-2.1,0.6-2.9,2
			c-0.4,0.6-0.6,1.3-0.8,2l0-4.3c0.9-0.1,1.8-0.8,2.5-2c0.8-1.3,1.1-3.1,1.1-4.9c-1,0-2,0.6-2.8,2c-0.3,0.6-0.6,1.3-0.8,2l0-4.4
			c0.9-0.1,1.8-0.8,2.4-2c0.7-1.3,1.1-3.1,1-4.9c-1,0-1.9,0.6-2.7,2c-0.3,0.6-0.6,1.3-0.8,2l0-4.4c0.9-0.1,1.7-0.8,2.3-2
			c0.7-1.3,1-3.1,1-4.9c-0.9,0-1.9,0.6-2.6,2c-0.3,0.6-0.6,1.3-0.7,2.1l0-4.4c0.8-0.1,1.6-0.8,2.3-2c0.7-1.3,1-3.1,0.9-4.9
			c-0.9,0-1.8,0.6-2.5,2c-0.3,0.6-0.6,1.3-0.7,2.1l0-2.7c0.9-1.8,1.4-3.6,1.3-5.3c-0.1-1.7-0.8-2.8-1.9-3.2c-1,1.8-1.6,3.8-1.5,5.5
			c0.1,1.3,0.5,2.3,1.2,2.8l0,2.9c-0.2-0.8-0.4-1.5-0.7-2.1c-0.7-1.3-1.6-2-2.5-2c0,1.8,0.3,3.5,0.9,4.9c0.6,1.2,1.4,1.8,2.3,2
			l0,4.4c-0.2-0.8-0.4-1.5-0.7-2.1c-0.7-1.3-1.6-2-2.6-2c0,1.8,0.3,3.5,1,4.9c0.6,1.2,1.5,1.8,2.3,2l0,4.4c-0.2-0.7-0.4-1.4-0.8-2
			c-0.7-1.3-1.7-2-2.7-2c0,1.8,0.3,3.5,1,4.9c0.7,1.2,1.5,1.8,2.4,2l0,4.4c-0.2-0.7-0.4-1.4-0.8-2c-0.8-1.3-1.8-2-2.8-2
			c0,1.8,0.3,3.5,1.1,4.9c0.7,1.2,1.6,1.8,2.5,2l0,4.3c-0.2-0.7-0.5-1.4-0.8-2c-0.8-1.3-1.8-2-2.9-2c0,1.8,0.3,3.5,1.1,4.9
			c0.7,1.2,1.6,1.8,2.6,2l0,4.3c-0.2-0.7-0.5-1.4-0.8-2c-0.8-1.3-1.9-2-3-2c0,1.8,0.3,3.5,1.2,4.9c0.7,1.2,1.7,1.8,2.6,1.9
			c0,1.4-0.1,2.8-0.3,4.3c-0.1-0.3-0.1-0.6-0.2-0.9c-0.1-0.4-0.3-0.8-0.5-1.1c-0.8-1.4-1.9-2-3-2c-0.1,0.8,0,1.6,0.2,2.4
			c0.2,0.8,0.4,1.5,0.7,2.2c0.6,1.2,1.5,1.9,2.5,2.2c-0.2,1.4-0.5,2.7-0.8,4.1c-0.1-0.7-0.2-1.4-0.5-1.9c-0.6-1.4-1.6-2.2-2.8-2.4
			c-0.2,0.8-0.2,1.6-0.2,2.4c0,0.8,0.3,1.6,0.5,2.3c0.5,1.2,1.3,2.1,2.2,2.5c-0.4,1.3-0.8,2.7-1.3,4c0-0.7,0-1.4-0.2-2
			c-0.2-0.7-0.6-1.4-1-1.8c-0.5-0.5-1-0.8-1.6-0.9c-0.1,0.4-0.2,0.8-0.3,1.2c-0.1,0.4-0.2,0.8-0.2,1.2c-0.1,0.8,0,1.6,0.2,2.3
			c0.2,0.8,0.5,1.4,0.9,1.9c0.3,0.4,0.7,0.7,1.1,0.9c-0.6,1.3-1.1,2.6-1.8,3.8c0.1-0.7,0.2-1.4,0-2c-0.3-1.6-1.2-2.6-2.4-3.1
			c-0.4,0.7-0.6,1.5-0.7,2.3c-0.2,0.8-0.2,1.6-0.1,2.3c0.2,1.3,0.8,2.4,1.7,3c-0.7,1.2-1.4,2.3-2.2,3.4c0.2-0.6,0.2-1.3,0.1-1.9
			c-0.1-1.6-0.9-2.7-2-3.3c-0.5,0.7-0.8,1.4-1,2.2c-0.2,0.8-0.3,1.6-0.3,2.3c0,1.3,0.5,2.5,1.4,3.2c-0.8,1.1-1.7,2.1-2.6,3.2
			c0.2-0.6,0.4-1.3,0.4-1.9c0-0.8-0.1-1.5-0.4-2.1c-0.3-0.6-0.7-1.1-1.3-1.5c-0.5,0.7-1,1.3-1.3,2c-0.3,0.7-0.5,1.5-0.6,2.3
			c-0.1,1.3,0.2,2.5,1,3.4c-1,1-2,1.9-3,2.8c0.3-0.6,0.5-1.2,0.6-1.8c0.2-1.7-0.3-3-1.3-3.9c-0.6,0.6-1.1,1.2-1.5,1.9
			c-0.4,0.7-0.7,1.4-0.8,2.2c-0.1,0.8-0.1,1.6,0.1,2.2c0.1,0.5,0.3,0.9,0.6,1.3c-1.1,0.9-2.2,1.7-3.3,2.5c0.1-0.2,0.2-0.4,0.3-0.6
			c0.2-0.4,0.3-0.8,0.4-1.2c0.4-1.6,0-3-0.9-4c-0.7,0.5-1.2,1.1-1.7,1.7c-0.4,0.7-0.9,1.4-1.1,2.1c-0.4,1.3-0.3,2.6,0.3,3.7
			c-1.2,0.7-2.4,1.4-3.6,2.1c0.4-0.5,0.8-1.1,1-1.7c0.3-0.8,0.4-1.5,0.3-2.2c-0.1-0.7-0.4-1.4-0.8-2c-0.7,0.5-1.4,0.9-1.9,1.5
			c-0.5,0.6-1,1.3-1.3,2.1c-0.1,0.4-0.3,0.8-0.3,1.1c-0.1,0.4-0.1,0.7-0.1,1.1c0,0.5,0.1,1,0.3,1.5c-0.4,0.2-0.9,0.4-1.3,0.7
			c-0.6,0.3-1.5,0.7-2.4,1c0.2-0.2,0.3-0.3,0.5-0.5c0.3-0.3,0.4-0.7,0.6-1.1c0.7-1.6,0.6-3.1,0-4.3c-0.4,0.2-0.7,0.4-1.1,0.6
			c-0.2,0.1-0.3,0.2-0.5,0.4c-0.1,0.1-0.4,0.3-0.4,0.4c0,0.1-0.2,0.2-0.4,0.4c-0.1,0.1-0.3,0.3-0.5,0.5c-0.3,0.3-0.5,0.7-0.8,1.1
			c-0.7,1.3-0.9,2.7-0.5,3.9c-1.3,0.5-2.7,1.1-4,1.6c0.5-0.5,1-1,1.3-1.6c0.8-1.5,0.9-3.1,0.3-4.5c-1.7,0.6-3.2,1.8-4,3.3
			c-0.7,1.3-0.9,2.7-0.5,3.9c-1,0.4-1.9,0.7-2.6,1c-0.4,0.2-0.9,0.4-1.3,0.5c0.5-0.5,0.9-1,1.2-1.6c0.8-1.6,0.9-3.2,0.3-4.5
			c-1.7,0.6-3.2,1.8-4,3.4c-0.7,1.3-0.8,2.8-0.4,4c-1.3,0.5-2.6,1-3.9,1.6c0.5-0.5,0.9-1,1.2-1.6c0.8-1.6,0.8-3.2,0.2-4.6
			c-1.7,0.6-3.2,1.8-4,3.4c-0.7,1.4-0.8,2.8-0.4,4.1c-2.8,1.1-5.5,2.3-8.3,3.4c-2.8-1.2-5.5-2.3-8.3-3.4c0.4-1.3,0.3-2.7-0.4-4.1
			c-0.8-1.6-2.3-2.8-4-3.4c-0.6,1.4-0.6,3,0.2,4.6c0.3,0.6,0.7,1.2,1.2,1.6c-1.3-0.5-2.6-1-3.9-1.6c0.4-1.3,0.3-2.7-0.4-4
			c-0.8-1.6-2.3-2.7-4-3.4c-0.6,1.4-0.6,3,0.3,4.5c0.3,0.6,0.7,1.1,1.2,1.6c-0.4-0.2-0.9-0.4-1.3-0.5c-0.7-0.3-1.6-0.6-2.6-1
			c0.4-1.2,0.2-2.6-0.5-3.9c-0.8-1.5-2.3-2.7-4-3.3c-0.6,1.3-0.5,2.9,0.3,4.5c0.3,0.6,0.8,1.2,1.3,1.6c-1.3-0.5-2.7-1-4-1.6
			c0.3-1.2,0.2-2.6-0.5-3.9c-0.2-0.4-0.5-0.7-0.8-1.1c-0.1-0.2-0.3-0.3-0.5-0.5c-0.1-0.1-0.4-0.3-0.4-0.4c0-0.1-0.2-0.2-0.4-0.4
			c-0.2-0.1-0.3-0.3-0.5-0.4c-0.3-0.2-0.7-0.4-1.1-0.6c-0.7,1.3-0.8,2.8,0,4.3c0.2,0.4,0.3,0.7,0.6,1.1c0.1,0.2,0.3,0.3,0.5,0.5
			c-0.9-0.4-1.8-0.7-2.4-1c-0.4-0.2-0.9-0.4-1.3-0.7c0.2-0.5,0.3-1,0.3-1.5c0-0.4,0-0.7-0.1-1.1c-0.1-0.4-0.2-0.7-0.3-1.1
			c-0.3-0.8-0.7-1.5-1.3-2.1c-0.5-0.6-1.2-1.1-1.9-1.5c-0.4,0.6-0.7,1.2-0.8,2c-0.1,0.7,0,1.5,0.3,2.2c0.2,0.6,0.6,1.2,1,1.7
			c-1.2-0.7-2.4-1.4-3.6-2.1c0.5-1.1,0.7-2.4,0.3-3.7c-0.2-0.8-0.6-1.5-1.1-2.1c-0.5-0.7-1-1.2-1.7-1.7c-0.9,1-1.3,2.4-0.9,4
			c0.1,0.4,0.2,0.8,0.4,1.2c0.1,0.2,0.2,0.4,0.3,0.6c-1.1-0.8-2.2-1.6-3.3-2.5c0.3-0.4,0.5-0.8,0.6-1.3c0.2-0.7,0.2-1.5,0.1-2.2
			c-0.1-0.8-0.4-1.5-0.8-2.2c-0.4-0.7-0.9-1.4-1.5-1.9c-1,0.9-1.5,2.2-1.3,3.9c0.1,0.6,0.3,1.2,0.6,1.8c-1-0.9-2-1.8-3-2.8
			c0.7-0.9,1.1-2.1,1-3.4c0-0.8-0.2-1.6-0.6-2.3c-0.3-0.7-0.8-1.4-1.3-2c-0.5,0.4-1,0.9-1.3,1.5c-0.3,0.6-0.4,1.3-0.4,2.1
			c0,0.6,0.2,1.3,0.4,1.9c-0.9-1-1.8-2.1-2.6-3.2c0.8-0.8,1.3-1.9,1.4-3.2c0-0.8-0.1-1.5-0.3-2.3c-0.2-0.8-0.6-1.5-1-2.2
			c-1.1,0.6-1.9,1.7-2,3.3c0,0.6,0,1.3,0.1,1.9c-0.8-1.1-1.5-2.2-2.2-3.4c0.9-0.6,1.5-1.7,1.7-3c0.1-0.8,0.1-1.6-0.1-2.3
			c-0.1-0.8-0.4-1.6-0.7-2.3c-1.1,0.5-2,1.5-2.4,3.1c-0.2,0.7-0.1,1.3,0,2c-0.6-1.2-1.2-2.5-1.8-3.8c0.4-0.2,0.8-0.5,1.1-0.9
			c0.4-0.5,0.7-1.1,0.9-1.9c0.2-0.8,0.3-1.5,0.2-2.3c0-0.4-0.1-0.8-0.2-1.2c-0.1-0.4-0.1-0.8-0.3-1.2c-0.6,0.1-1.1,0.4-1.6,0.9
			c-0.5,0.5-0.8,1.1-1,1.8c-0.2,0.6-0.2,1.3-0.2,2c-0.5-1.3-0.9-2.7-1.3-4c1-0.4,1.8-1.3,2.2-2.5c0.2-0.7,0.5-1.5,0.5-2.3
			c0.1-0.8,0-1.6-0.2-2.4c-1.2,0.2-2.2,0.9-2.8,2.4c-0.3,0.6-0.4,1.3-0.5,1.9c-0.3-1.4-0.6-2.7-0.8-4.1c1-0.3,1.9-1,2.5-2.2
			c0.4-0.7,0.5-1.4,0.7-2.2c0.2-0.8,0.2-1.6,0.2-2.4c-1.1,0-2.2,0.6-3,2c-0.2,0.3-0.4,0.7-0.5,1.1c-0.1,0.3-0.1,0.6-0.2,0.9
			c-0.1-1.4-0.2-2.8-0.3-4.3c1-0.1,1.9-0.8,2.6-1.9c0.8-1.3,1.2-3.1,1.2-4.9c-1.1,0-2.2,0.6-3,2c-0.4,0.6-0.6,1.3-0.8,2l0-4.3
			c1-0.1,1.9-0.8,2.6-2c0.8-1.3,1.2-3.1,1.1-4.9c-1,0-2.1,0.6-2.9,2c-0.4,0.6-0.6,1.3-0.8,2l0-4.3c0.9-0.1,1.8-0.8,2.5-2
			c0.8-1.3,1.1-3.1,1.1-4.9c-1,0-2,0.6-2.8,2c-0.3,0.6-0.6,1.3-0.8,2l0-4.4c0.9-0.1,1.8-0.8,2.4-2c0.7-1.3,1.1-3.1,1-4.9
			c-1,0-1.9,0.6-2.7,2c-0.3,0.6-0.6,1.3-0.8,2l0-4.4c0.9-0.1,1.7-0.8,2.3-2c0.7-1.3,1-3.1,1-4.9c-0.9,0-1.9,0.6-2.6,2
			c-0.3,0.6-0.6,1.3-0.7,2.1l0-4.4c0.8-0.1,1.6-0.8,2.3-2c0.7-1.3,1-3.1,0.9-4.9c-0.9,0-1.8,0.6-2.5,2c-0.3,0.6-0.6,1.3-0.7,2.1
			l0-2.9c0.7-0.6,1.2-1.5,1.2-2.8c0.1-1.7-0.5-3.7-1.5-5.5c-1.1,0.4-1.8,1.5-1.9,3.2c-0.1,1.6,0.4,3.5,1.3,5.3l0,2.7
			c-0.2-0.8-0.4-1.5-0.7-2.1c-0.7-1.3-1.6-2-2.5-2c0,1.8,0.3,3.5,0.9,4.9c0.6,1.2,1.4,1.8,2.3,2l0,4.4c-0.2-0.8-0.4-1.5-0.7-2.1
			c-0.7-1.3-1.6-2-2.6-2c0,1.8,0.3,3.5,1,4.9c0.6,1.2,1.5,1.8,2.3,2l0,4.4c-0.2-0.7-0.4-1.4-0.8-2c-0.7-1.3-1.7-2-2.7-2
			c0,1.8,0.3,3.5,1,4.9c0.7,1.2,1.5,1.8,2.4,2l0,4.4c-0.2-0.7-0.4-1.4-0.8-2c-0.8-1.3-1.8-2-2.8-2c0,1.8,0.3,3.5,1.1,4.9
			c0.7,1.2,1.6,1.8,2.5,2l0,4.3c-0.2-0.7-0.5-1.4-0.8-2c-0.8-1.3-1.8-2-2.9-2c0,1.8,0.3,3.5,1.1,4.9c0.7,1.2,1.6,1.8,2.6,2l0,4.3
			c-0.2-0.7-0.5-1.4-0.8-2c-0.8-1.3-1.9-2-3-2c0,1.8,0.3,3.5,1.2,4.9c0.7,1.2,1.7,1.8,2.7,2c0,1.4,0.1,2.9,0.2,4.3
			c-0.1-0.3-0.2-0.6-0.4-0.8c-0.2-0.4-0.4-0.7-0.6-1.1c-0.9-1.3-2.1-2-3.2-2c0,0.9,0.1,1.9,0.4,2.8c0.2,0.9,0.7,1.7,1.2,2.3
			c0.9,1.2,2,1.7,3,1.7c0.2,1.5,0.5,2.9,0.8,4.3c-0.4-0.7-0.8-1.3-1.3-1.8c-1.1-1.2-2.4-1.7-3.5-1.6c0.1,0.9,0.4,1.9,0.8,2.7
			c0.4,0.8,0.8,1.6,1.5,2.2c1.1,1,2.2,1.4,3.3,1.3c0.4,1.4,0.8,2.8,1.3,4.1c-0.4-0.6-0.9-1.1-1.5-1.6c-0.7-0.5-1.3-0.9-1.9-1.1
			c-0.6-0.2-1.3-0.2-1.8,0c0.1,0.5,0.3,0.9,0.4,1.4c0.2,0.4,0.4,0.8,0.7,1.2c0.5,0.8,1.1,1.5,1.8,2c0.7,0.5,1.4,0.8,2.1,0.9
			c0.5,0.1,1,0.1,1.4-0.1c0.5,1.3,1.1,2.6,1.8,3.9c-0.5-0.5-1.1-0.9-1.7-1.3c-1.4-0.9-2.8-1.1-4-0.6c0.4,0.9,0.8,1.7,1.4,2.5
			c0.6,0.7,1.3,1.3,2.1,1.7c1.3,0.7,2.6,0.8,3.6,0.4c0.7,1.2,1.5,2.5,2.3,3.7c-0.6-0.4-1.2-0.8-1.9-1.1c-1.6-0.7-3-0.7-4.1,0
			c0.5,0.8,1.1,1.6,1.8,2.2c0.7,0.7,1.4,1.2,2.3,1.5c1.4,0.5,2.7,0.5,3.7-0.1c0.9,1.1,1.8,2.3,2.7,3.4c-0.6-0.4-1.3-0.7-2-0.9
			c-0.8-0.2-1.6-0.3-2.3-0.2c-0.7,0.1-1.3,0.3-1.8,0.7c0.5,0.8,1.3,1.4,2,2c0.8,0.5,1.6,1,2.4,1.2c1.5,0.3,2.8,0.1,3.8-0.6
			c1,1,2,2,3.1,3c-0.7-0.3-1.4-0.5-2.1-0.6c-1.7-0.3-3.2,0.1-4.1,1c0.7,0.7,1.4,1.4,2.3,1.8c0.8,0.4,1.7,0.7,2.6,0.8
			c0.9,0.1,1.7,0,2.4-0.2c0.5-0.2,1-0.5,1.4-0.8c1.1,0.9,2.3,1.8,3.5,2.6c-0.3-0.1-0.6-0.1-0.9-0.2c-0.4-0.1-0.9-0.1-1.3-0.2
			c-1.8,0-3.2,0.5-4.1,1.6c0.8,0.6,1.6,1.1,2.5,1.5c0.9,0.4,1.8,0.5,2.7,0.5c1.6,0,2.8-0.6,3.6-1.5c1.2,0.8,2.4,1.5,3.6,2.2
			c-0.7-0.1-1.4-0.1-2,0c-0.9,0.1-1.7,0.3-2.4,0.7c-0.7,0.3-1.2,0.8-1.6,1.4c0.8,0.6,1.7,0.9,2.6,1.2c0.9,0.2,1.9,0.3,2.8,0.2
			c0.4,0,0.9-0.2,1.3-0.3c0.4-0.1,0.7-0.3,1.1-0.5c0.4-0.3,0.8-0.7,1.1-1.1c0.9,0.4,1.7,0.9,2.6,1.2c0.4,0.2,0.9,0.4,1.3,0.5
			c-0.2,0-0.5,0-0.7,0c-0.4,0.1-1,0.1-1.4,0.2c-1.7,0.4-3.1,1.3-3.7,2.6c0.4,0.2,0.9,0.4,1.3,0.6c0.2,0.1,0.5,0.2,0.7,0.2
			c0.3,0.1,0.5,0.1,0.8,0.2c0.4,0.1,0.6,0.1,0.8,0.1c0.2,0,0.4,0,0.7,0c0.4,0,0.9-0.1,1.3-0.2c1.5-0.4,2.5-1.3,3.2-2.4
			c1.3,0.5,2.6,1,3.8,1.6c-0.7,0-1.3,0.1-2,0.3c-1.7,0.5-2.9,1.6-3.5,2.9c1.7,0.7,3.5,0.9,5.2,0.4c1.5-0.4,2.6-1.3,3.2-2.4
			c1.3,0.5,2.6,1,3.8,1.6c-0.7,0-1.3,0.1-2,0.3c-1.7,0.5-2.9,1.6-3.5,3c1.7,0.7,3.5,0.9,5.3,0.4c1.5-0.4,2.6-1.4,3.3-2.5
			c1.3,0.5,2.6,1.1,3.8,1.6c-0.7,0-1.4,0.1-2,0.3c-1.7,0.5-3,1.7-3.6,3.1c1.6,0.7,3.5,0.9,5.3,0.4c1.5-0.5,2.6-1.4,3.3-2.5
			c2.2,0.9,4.4,1.8,6.5,2.8c-5.9,2.5-11.7,5-17.4,7.8c-1.3,0.6-0.4,2.6,1,1.9c6.2-3,12.6-5.8,19-8.6c6.4,2.8,12.8,5.6,19,8.6
			c1.4,0.7,2.3-1.3,1-1.9c-5.8-2.7-11.6-5.3-17.4-7.8c2.2-0.9,4.3-1.8,6.5-2.8c0.7,1.2,1.8,2.1,3.3,2.5c1.7,0.5,3.6,0.4,5.3-0.4
			c-0.6-1.4-1.8-2.5-3.6-3.1c-0.7-0.2-1.3-0.3-2-0.3c1.3-0.5,2.6-1.1,3.8-1.6c0.7,1.1,1.8,2,3.3,2.5c1.7,0.5,3.6,0.3,5.3-0.4
			c-0.6-1.4-1.8-2.5-3.5-3c-0.6-0.2-1.3-0.3-2-0.3c1.3-0.5,2.6-1,3.8-1.6c0.6,1.1,1.7,2,3.2,2.4c1.7,0.5,3.6,0.3,5.2-0.4
			c-0.6-1.3-1.8-2.4-3.5-2.9c-0.6-0.2-1.3-0.3-2-0.3c1.3-0.5,2.6-1,3.8-1.6c0.6,1.1,1.7,1.9,3.2,2.4c0.4,0.1,0.9,0.2,1.3,0.2
			c0.2,0,0.4,0,0.7,0c0.2,0,0.4,0,0.8-0.1c0.3-0.1,0.5-0.1,0.8-0.2c0.2-0.1,0.5-0.1,0.7-0.2c0.5-0.2,0.9-0.4,1.3-0.6
			c-0.6-1.3-2-2.2-3.7-2.6c-0.4-0.1-1-0.1-1.4-0.2c-0.2,0-0.5,0-0.7,0c0.4-0.2,0.9-0.4,1.3-0.5c0.9-0.4,1.7-0.8,2.6-1.2
			c0.3,0.4,0.7,0.8,1.1,1.1c0.3,0.2,0.7,0.4,1.1,0.5c0.4,0.1,0.8,0.3,1.3,0.3c0.9,0.1,1.8,0,2.8-0.2c0.9-0.3,1.9-0.6,2.6-1.2
			c-0.4-0.6-0.9-1.1-1.6-1.4c-0.7-0.4-1.5-0.6-2.4-0.7c-0.7-0.1-1.4-0.1-2,0c1.2-0.7,2.4-1.4,3.6-2.2c0.8,0.9,2,1.5,3.6,1.5
			c0.9,0,1.9-0.1,2.7-0.5c0.9-0.4,1.7-0.9,2.5-1.5c-0.9-1-2.3-1.6-4.1-1.6c-0.4,0-0.9,0.1-1.3,0.2c-0.3,0.1-0.6,0.1-0.9,0.2
			c1.2-0.8,2.3-1.7,3.5-2.6c0.4,0.3,0.8,0.6,1.4,0.8c0.7,0.3,1.5,0.3,2.4,0.2c0.9-0.1,1.8-0.4,2.6-0.8c0.9-0.4,1.6-1.1,2.3-1.8
			c-1-0.9-2.4-1.3-4.1-1c-0.7,0.1-1.4,0.3-2.1,0.6c1.1-1,2.1-2,3.1-3c0.9,0.7,2.2,0.9,3.8,0.6c0.8-0.2,1.7-0.6,2.4-1.2
			c0.8-0.6,1.5-1.2,2-2c-0.5-0.4-1.1-0.6-1.8-0.7c-0.7-0.1-1.5,0-2.3,0.2c-0.7,0.2-1.4,0.5-2,0.9c1-1.1,1.9-2.2,2.7-3.4
			c1,0.5,2.3,0.6,3.7,0.1c0.8-0.3,1.6-0.8,2.3-1.5c0.7-0.6,1.3-1.4,1.8-2.2c-1.1-0.6-2.6-0.6-4.1,0c-0.7,0.3-1.3,0.7-1.9,1.1
			c0.8-1.2,1.6-2.4,2.3-3.7c1,0.4,2.3,0.3,3.6-0.4c0.8-0.4,1.5-1,2.1-1.7c0.6-0.7,1-1.6,1.4-2.5c-1.1-0.5-2.6-0.3-4,0.6
			c-0.6,0.4-1.1,0.8-1.7,1.3c0.6-1.3,1.2-2.6,1.8-3.9c0.4,0.1,0.9,0.1,1.4,0.1c0.7-0.1,1.4-0.4,2.1-0.9c0.7-0.5,1.3-1.2,1.8-2
			c0.3-0.4,0.5-0.8,0.7-1.2c0.2-0.4,0.3-0.9,0.4-1.4c-0.6-0.2-1.2-0.2-1.8,0c-0.6,0.2-1.3,0.5-1.9,1.1c-0.6,0.4-1.1,1-1.5,1.6
			c0.5-1.4,0.9-2.7,1.3-4.1c1,0.1,2.2-0.3,3.3-1.3c0.6-0.6,1.1-1.3,1.5-2.2c0.4-0.8,0.6-1.8,0.8-2.7c-1.1-0.2-2.4,0.4-3.5,1.6
			c-0.5,0.5-0.9,1.2-1.3,1.8c0.3-1.4,0.6-2.9,0.8-4.3C279.3,205.3,280.4,204.8,281.3,203.6z"/>
	</g>
</g>
<g>
	<g>
		<linearGradient id="SVGID_44_" gradientUnits="userSpaceOnUse" x1="165.5177" y1="194.1074" x2="191.8818" y2="194.1074">
			<stop  offset="4.469550e-03" style="stop-color:#EAD09A"/>
			<stop  offset="0.1698" style="stop-color:#DFB968"/>
			<stop  offset="0.4201" style="stop-color:#DFB968"/>
			<stop  offset="0.9838" style="stop-color:#965D24"/>
		</linearGradient>
		<rect x="165.5" y="193.5" class="st48" width="26.4" height="1.2"/>
		<linearGradient id="SVGID_45_" gradientUnits="userSpaceOnUse" x1="166.5651" y1="198.6128" x2="190.8345" y2="198.6128">
			<stop  offset="4.470575e-03" style="stop-color:#621E2D"/>
			<stop  offset="0.9838" style="stop-color:#933E29"/>
		</linearGradient>
		<path class="st49" d="M178.7,195.3h-12.1c2.6,1.3,2.5,6.7,12.1,6.7c9.6,0,9.5-5.5,12.1-6.7H178.7z"/>
	</g>
</g>
<g>
	<linearGradient id="SVGID_46_" gradientUnits="userSpaceOnUse" x1="218.0369" y1="194.1074" x2="244.4009" y2="194.1074">
		<stop  offset="4.469550e-03" style="stop-color:#EAD09A"/>
		<stop  offset="0.1698" style="stop-color:#DFB968"/>
		<stop  offset="0.4201" style="stop-color:#DFB968"/>
		<stop  offset="0.9838" style="stop-color:#965D24"/>
	</linearGradient>
	<polygon class="st50" points="218,194.7 244.4,194.7 244.4,193.5 218,193.5 	"/>
	<linearGradient id="SVGID_47_" gradientUnits="userSpaceOnUse" x1="219.0842" y1="198.6128" x2="243.3536" y2="198.6128">
		<stop  offset="4.470575e-03" style="stop-color:#621E2D"/>
		<stop  offset="0.9838" style="stop-color:#933E29"/>
	</linearGradient>
	<path class="st51" d="M231.2,195.3h12.1c-2.6,1.3-2.5,6.7-12.1,6.7c-9.6,0-9.5-5.5-12.1-6.7H231.2z"/>
</g>
<g>
	<linearGradient id="SVGID_48_" gradientUnits="userSpaceOnUse" x1="214.2408" y1="73.1565" x2="198.1557" y2="286.8587">
		<stop  offset="4.469550e-03" style="stop-color:#EAD09A"/>
		<stop  offset="0.1698" style="stop-color:#DFB968"/>
		<stop  offset="0.4201" style="stop-color:#DFB968"/>
		<stop  offset="0.9838" style="stop-color:#965D24"/>
	</linearGradient>
	<path class="st52" d="M265.9,138.6c-8.7,0-15.8-6.8-15.8-15.1v-2.1h-20.4c-15.7-1.2-23-5.7-23.1-5.7l-1.1-0.7l-1.1,0.7
		c-0.1,0.1-6.9,4.4-21.6,5.7h-17.9v2.1c0,8.3-7.1,15.1-15.8,15.1H147v45.3c0,25.1,14.4,48,37.5,59.7c7.1,3.6,14.7,6,22.7,7l0.3,0
		l0.3,0c8-1.1,15.6-3.4,22.7-7c23.2-11.7,37.5-34.6,37.5-59.7v-45.3H265.9z M263.8,183.8c0,23.5-13.5,44.9-35.2,55.9
		c-6.6,3.3-13.7,5.5-21.1,6.6c-7.4-1-14.5-3.2-21.1-6.6c-21.7-11-35.2-32.4-35.2-55.9v-41.1c9.3-1,16.8-8.1,17.8-17.1l0.4,0
		c1.8,0.1,3.6,0.1,5.3,0.1c17.9,0,27.7-4.4,30.9-6.1c3.5,1.8,15.7,7,38.2,5.9l2.3,0.1c1,9,8.5,16.2,17.8,17.1V183.8z"/>
</g>
<linearGradient id="SVGID_49_" gradientUnits="userSpaceOnUse" x1="54.2995" y1="308.5163" x2="588.6883" y2="317.9724" gradientTransform="matrix(1.1499 0 0 -0.2971 -15.4463 403.4136)">
	<stop  offset="4.469550e-03" style="stop-color:#EAD09A"/>
	<stop  offset="0.1698" style="stop-color:#DFB968"/>
	<stop  offset="0.4201" style="stop-color:#DFB968"/>
	<stop  offset="0.9838" style="stop-color:#965D24"/>
</linearGradient>
<rect x="92" y="311" class="st53" width="231.2" height="0"/>
<g>
	<linearGradient id="SVGID_50_" gradientUnits="userSpaceOnUse" x1="6.8304" y1="319.8759" x2="476.5036" y2="319.0512">
		<stop  offset="4.469550e-03" style="stop-color:#EAD09A"/>
		<stop  offset="0.1698" style="stop-color:#DFB968"/>
		<stop  offset="0.4201" style="stop-color:#DFB968"/>
		<stop  offset="0.9838" style="stop-color:#965D24"/>
	</linearGradient>
	<path class="st54" d="M112.3,318.5c-0.2-0.3-0.4-0.6-0.7-0.8c-0.3-0.2-0.6-0.3-1-0.3c-0.4,0-0.7,0.1-1,0.3
		c-0.3,0.2-0.6,0.4-0.7,0.8s-0.3,0.7-0.3,1.2c0,0.4,0.1,0.8,0.3,1.1c0.2,0.3,0.4,0.6,0.7,0.8c0.3,0.2,0.7,0.3,1,0.3
		c0.5,0,1-0.2,1.3-0.5c0.4-0.3,0.6-0.8,0.6-1.3h-2.2v-0.6h3v0.6c0,0.5-0.2,0.9-0.4,1.3c-0.2,0.4-0.6,0.7-1,0.9
		c-0.4,0.2-0.8,0.3-1.3,0.3c-0.5,0-1-0.1-1.4-0.4c-0.4-0.2-0.8-0.6-1-1c-0.2-0.4-0.4-0.9-0.4-1.5c0-0.5,0.1-1,0.4-1.5
		c0.2-0.4,0.6-0.8,1-1c0.4-0.2,0.9-0.4,1.4-0.4c0.6,0,1.1,0.1,1.6,0.4c0.5,0.3,0.8,0.7,1,1.2H112.3z"/>
	<linearGradient id="SVGID_51_" gradientUnits="userSpaceOnUse" x1="6.8305" y1="319.921" x2="476.5036" y2="319.0963">
		<stop  offset="4.469550e-03" style="stop-color:#EAD09A"/>
		<stop  offset="0.1698" style="stop-color:#DFB968"/>
		<stop  offset="0.4201" style="stop-color:#DFB968"/>
		<stop  offset="0.9838" style="stop-color:#965D24"/>
	</linearGradient>
	<path class="st55" d="M115.4,316.9v3.5c0,0.5,0.1,0.9,0.4,1.1c0.2,0.2,0.6,0.4,1,0.4c0.4,0,0.8-0.1,1-0.4c0.2-0.2,0.4-0.6,0.4-1.1
		v-3.5h0.7v3.5c0,0.5-0.1,0.9-0.3,1.2c-0.2,0.3-0.4,0.6-0.8,0.7c-0.3,0.2-0.7,0.2-1.1,0.2c-0.4,0-0.7-0.1-1.1-0.2
		c-0.3-0.2-0.6-0.4-0.7-0.7c-0.2-0.3-0.3-0.7-0.3-1.2v-3.5H115.4z"/>
	<linearGradient id="SVGID_52_" gradientUnits="userSpaceOnUse" x1="6.8304" y1="319.9022" x2="476.5036" y2="319.0775">
		<stop  offset="4.469550e-03" style="stop-color:#EAD09A"/>
		<stop  offset="0.1698" style="stop-color:#DFB968"/>
		<stop  offset="0.4201" style="stop-color:#DFB968"/>
		<stop  offset="0.9838" style="stop-color:#965D24"/>
	</linearGradient>
	<path class="st56" d="M121.2,316.9v5.6h-0.7v-5.6H121.2z"/>
	<linearGradient id="SVGID_53_" gradientUnits="userSpaceOnUse" x1="6.8304" y1="319.9072" x2="476.5036" y2="319.0825">
		<stop  offset="4.469550e-03" style="stop-color:#EAD09A"/>
		<stop  offset="0.1698" style="stop-color:#DFB968"/>
		<stop  offset="0.4201" style="stop-color:#DFB968"/>
		<stop  offset="0.9838" style="stop-color:#965D24"/>
	</linearGradient>
	<path class="st57" d="M126.1,317.3c0.4,0.2,0.8,0.5,1,1c0.2,0.4,0.4,0.9,0.4,1.5s-0.1,1.1-0.4,1.5c-0.2,0.4-0.6,0.7-1,1
		c-0.4,0.2-1,0.3-1.6,0.3h-1.7v-5.6h1.7C125.2,316.9,125.7,317,126.1,317.3z M126.2,321.3c0.4-0.4,0.6-0.9,0.6-1.6
		c0-0.7-0.2-1.2-0.6-1.6c-0.4-0.4-0.9-0.6-1.6-0.6h-1v4.4h1C125.3,321.9,125.8,321.7,126.2,321.3z"/>
	<linearGradient id="SVGID_54_" gradientUnits="userSpaceOnUse" x1="6.8305" y1="319.9154" x2="476.5036" y2="319.0907">
		<stop  offset="4.469550e-03" style="stop-color:#EAD09A"/>
		<stop  offset="0.1698" style="stop-color:#DFB968"/>
		<stop  offset="0.4201" style="stop-color:#DFB968"/>
		<stop  offset="0.9838" style="stop-color:#965D24"/>
	</linearGradient>
	<path class="st58" d="M129.6,317.5v1.9h2v0.6h-2v1.9h2.3v0.6h-3v-5.6h3v0.6H129.6z"/>
	<linearGradient id="SVGID_55_" gradientUnits="userSpaceOnUse" x1="6.8305" y1="319.9257" x2="476.5037" y2="319.101">
		<stop  offset="4.469550e-03" style="stop-color:#EAD09A"/>
		<stop  offset="0.1698" style="stop-color:#DFB968"/>
		<stop  offset="0.4201" style="stop-color:#DFB968"/>
		<stop  offset="0.9838" style="stop-color:#965D24"/>
	</linearGradient>
	<path class="st59" d="M136.7,317.3c0.4,0.2,0.8,0.5,1,1c0.2,0.4,0.4,0.9,0.4,1.5s-0.1,1.1-0.4,1.5c-0.2,0.4-0.6,0.7-1,1
		c-0.4,0.2-1,0.3-1.6,0.3h-1.7v-5.6h1.7C135.7,316.9,136.2,317,136.7,317.3z M136.7,321.3c0.4-0.4,0.6-0.9,0.6-1.6
		c0-0.7-0.2-1.2-0.6-1.6c-0.4-0.4-0.9-0.6-1.6-0.6h-1v4.4h1C135.8,321.9,136.4,321.7,136.7,321.3z"/>
	<linearGradient id="SVGID_56_" gradientUnits="userSpaceOnUse" x1="6.8305" y1="319.9411" x2="476.5037" y2="319.1164">
		<stop  offset="4.469550e-03" style="stop-color:#EAD09A"/>
		<stop  offset="0.1698" style="stop-color:#DFB968"/>
		<stop  offset="0.4201" style="stop-color:#DFB968"/>
		<stop  offset="0.9838" style="stop-color:#965D24"/>
	</linearGradient>
	<path class="st60" d="M145.3,319.9c0.2,0.1,0.3,0.3,0.4,0.5c0.1,0.2,0.1,0.4,0.1,0.6c0,0.3-0.1,0.5-0.2,0.8
		c-0.1,0.2-0.4,0.4-0.6,0.5c-0.3,0.1-0.6,0.2-1,0.2h-2.1v-5.6h2c0.4,0,0.7,0.1,1,0.2c0.3,0.1,0.5,0.3,0.6,0.5
		c0.1,0.2,0.2,0.5,0.2,0.7c0,0.3-0.1,0.6-0.3,0.8c-0.2,0.2-0.4,0.4-0.7,0.5C144.9,319.7,145.1,319.7,145.3,319.9z M142.7,319.3h1.2
		c0.3,0,0.6-0.1,0.8-0.2c0.2-0.2,0.3-0.4,0.3-0.7c0-0.3-0.1-0.5-0.3-0.7c-0.2-0.2-0.5-0.2-0.8-0.2h-1.2V319.3z M144.8,321.6
		c0.2-0.2,0.3-0.4,0.3-0.7c0-0.3-0.1-0.6-0.3-0.7c-0.2-0.2-0.5-0.3-0.9-0.3h-1.3v2h1.3C144.3,321.9,144.6,321.8,144.8,321.6z"/>
	<linearGradient id="SVGID_57_" gradientUnits="userSpaceOnUse" x1="6.8305" y1="319.95" x2="476.5037" y2="319.1252">
		<stop  offset="4.469550e-03" style="stop-color:#EAD09A"/>
		<stop  offset="0.1698" style="stop-color:#DFB968"/>
		<stop  offset="0.4201" style="stop-color:#DFB968"/>
		<stop  offset="0.9838" style="stop-color:#965D24"/>
	</linearGradient>
	<path class="st61" d="M151.1,316.9l-1.8,3.5v2.1h-0.7v-2.1l-1.8-3.5h0.8l1.4,2.8l1.4-2.8H151.1z"/>
	<linearGradient id="SVGID_58_" gradientUnits="userSpaceOnUse" x1="6.8305" y1="319.9609" x2="476.5037" y2="319.1362">
		<stop  offset="4.469550e-03" style="stop-color:#EAD09A"/>
		<stop  offset="0.1698" style="stop-color:#DFB968"/>
		<stop  offset="0.4201" style="stop-color:#DFB968"/>
		<stop  offset="0.9838" style="stop-color:#965D24"/>
	</linearGradient>
	<path class="st62" d="M155.5,317.5v1.9h2v0.6h-2v1.9h2.3v0.6h-3v-5.6h3v0.6H155.5z"/>
	<linearGradient id="SVGID_59_" gradientUnits="userSpaceOnUse" x1="6.8306" y1="319.973" x2="476.5037" y2="319.1483">
		<stop  offset="4.469550e-03" style="stop-color:#EAD09A"/>
		<stop  offset="0.1698" style="stop-color:#DFB968"/>
		<stop  offset="0.4201" style="stop-color:#DFB968"/>
		<stop  offset="0.9838" style="stop-color:#965D24"/>
	</linearGradient>
	<path class="st63" d="M161.6,319.7l1.7,2.8h-0.8l-1.3-2.2l-1.3,2.2H159l1.7-2.8l-1.7-2.8h0.8l1.3,2.2l1.3-2.2h0.8L161.6,319.7z"/>
	<linearGradient id="SVGID_60_" gradientUnits="userSpaceOnUse" x1="6.8306" y1="319.9798" x2="476.5038" y2="319.1551">
		<stop  offset="4.469550e-03" style="stop-color:#EAD09A"/>
		<stop  offset="0.1698" style="stop-color:#DFB968"/>
		<stop  offset="0.4201" style="stop-color:#DFB968"/>
		<stop  offset="0.9838" style="stop-color:#965D24"/>
	</linearGradient>
	<path class="st64" d="M167.9,319.7c-0.3,0.3-0.8,0.5-1.4,0.5h-1.1v2.3h-0.7v-5.6h1.8c0.6,0,1.1,0.2,1.4,0.5
		c0.3,0.3,0.5,0.7,0.5,1.2C168.4,319,168.2,319.4,167.9,319.7z M167.3,319.3c0.2-0.2,0.3-0.4,0.3-0.7c0-0.7-0.4-1-1.2-1h-1.1v2h1.1
		C166.8,319.6,167.1,319.5,167.3,319.3z"/>
	<linearGradient id="SVGID_61_" gradientUnits="userSpaceOnUse" x1="6.8306" y1="319.987" x2="476.5038" y2="319.1623">
		<stop  offset="4.469550e-03" style="stop-color:#EAD09A"/>
		<stop  offset="0.1698" style="stop-color:#DFB968"/>
		<stop  offset="0.4201" style="stop-color:#DFB968"/>
		<stop  offset="0.9838" style="stop-color:#965D24"/>
	</linearGradient>
	<path class="st65" d="M170.4,317.5v1.9h2v0.6h-2v1.9h2.3v0.6h-3v-5.6h3v0.6H170.4z"/>
	<linearGradient id="SVGID_62_" gradientUnits="userSpaceOnUse" x1="6.8306" y1="319.9992" x2="476.5038" y2="319.1745">
		<stop  offset="4.469550e-03" style="stop-color:#EAD09A"/>
		<stop  offset="0.1698" style="stop-color:#DFB968"/>
		<stop  offset="0.4201" style="stop-color:#DFB968"/>
		<stop  offset="0.9838" style="stop-color:#965D24"/>
	</linearGradient>
	<path class="st66" d="M177.1,322.5l-1.3-2.3h-0.9v2.3h-0.7v-5.6h1.8c0.4,0,0.8,0.1,1.1,0.2c0.3,0.1,0.5,0.3,0.7,0.6
		c0.1,0.2,0.2,0.5,0.2,0.8c0,0.4-0.1,0.7-0.3,1c-0.2,0.3-0.6,0.5-1,0.6l1.4,2.3H177.1z M174.9,319.6h1.1c0.4,0,0.7-0.1,0.9-0.3
		c0.2-0.2,0.3-0.5,0.3-0.8c0-0.3-0.1-0.6-0.3-0.8c-0.2-0.2-0.5-0.3-0.9-0.3h-1.1V319.6z"/>
	<linearGradient id="SVGID_63_" gradientUnits="userSpaceOnUse" x1="6.8306" y1="320.0057" x2="476.5038" y2="319.181">
		<stop  offset="4.469550e-03" style="stop-color:#EAD09A"/>
		<stop  offset="0.1698" style="stop-color:#DFB968"/>
		<stop  offset="0.4201" style="stop-color:#DFB968"/>
		<stop  offset="0.9838" style="stop-color:#965D24"/>
	</linearGradient>
	<path class="st67" d="M180.1,316.9v5.6h-0.7v-5.6H180.1z"/>
	<linearGradient id="SVGID_64_" gradientUnits="userSpaceOnUse" x1="6.8306" y1="320.0083" x2="476.5038" y2="319.1836">
		<stop  offset="4.469550e-03" style="stop-color:#EAD09A"/>
		<stop  offset="0.1698" style="stop-color:#DFB968"/>
		<stop  offset="0.4201" style="stop-color:#DFB968"/>
		<stop  offset="0.9838" style="stop-color:#965D24"/>
	</linearGradient>
	<path class="st68" d="M182.5,317.5v1.9h2v0.6h-2v1.9h2.3v0.6h-3v-5.6h3v0.6H182.5z"/>
	<linearGradient id="SVGID_65_" gradientUnits="userSpaceOnUse" x1="6.8306" y1="320.0174" x2="476.5038" y2="319.1927">
		<stop  offset="4.469550e-03" style="stop-color:#EAD09A"/>
		<stop  offset="0.1698" style="stop-color:#DFB968"/>
		<stop  offset="0.4201" style="stop-color:#DFB968"/>
		<stop  offset="0.9838" style="stop-color:#965D24"/>
	</linearGradient>
	<path class="st69" d="M190.6,322.5h-0.7l-2.9-4.4v4.4h-0.7v-5.6h0.7l2.9,4.4v-4.4h0.7V322.5z"/>
	<linearGradient id="SVGID_66_" gradientUnits="userSpaceOnUse" x1="6.8306" y1="320.0202" x2="476.5038" y2="319.1955">
		<stop  offset="4.469550e-03" style="stop-color:#EAD09A"/>
		<stop  offset="0.1698" style="stop-color:#DFB968"/>
		<stop  offset="0.4201" style="stop-color:#DFB968"/>
		<stop  offset="0.9838" style="stop-color:#965D24"/>
	</linearGradient>
	<path class="st70" d="M192.4,318.2c0.2-0.4,0.6-0.8,1-1c0.4-0.2,0.9-0.4,1.4-0.4c0.6,0,1.1,0.1,1.6,0.4c0.5,0.3,0.8,0.7,1,1.2h-0.9
		c-0.2-0.3-0.4-0.6-0.7-0.8c-0.3-0.2-0.6-0.3-1-0.3c-0.4,0-0.7,0.1-1,0.3c-0.3,0.2-0.6,0.4-0.7,0.8c-0.2,0.3-0.3,0.7-0.3,1.2
		c0,0.4,0.1,0.8,0.3,1.2c0.2,0.3,0.4,0.6,0.7,0.8c0.3,0.2,0.7,0.3,1,0.3c0.4,0,0.8-0.1,1-0.3c0.3-0.2,0.5-0.4,0.7-0.8h0.9
		c-0.2,0.5-0.5,0.9-1,1.2c-0.5,0.3-1,0.4-1.6,0.4c-0.5,0-1-0.1-1.4-0.4c-0.4-0.2-0.8-0.6-1-1c-0.2-0.4-0.4-0.9-0.4-1.5
		C192,319.2,192.1,318.7,192.4,318.2z"/>
	<linearGradient id="SVGID_67_" gradientUnits="userSpaceOnUse" x1="6.8307" y1="320.0382" x2="476.5038" y2="319.2135">
		<stop  offset="4.469550e-03" style="stop-color:#EAD09A"/>
		<stop  offset="0.1698" style="stop-color:#DFB968"/>
		<stop  offset="0.4201" style="stop-color:#DFB968"/>
		<stop  offset="0.9838" style="stop-color:#965D24"/>
	</linearGradient>
	<path class="st71" d="M199.5,317.5v1.9h2v0.6h-2v1.9h2.3v0.6h-3v-5.6h3v0.6H199.5z"/>
	<linearGradient id="SVGID_68_" gradientUnits="userSpaceOnUse" x1="6.8309" y1="320.1733" x2="476.5041" y2="319.3486">
		<stop  offset="4.469550e-03" style="stop-color:#EAD09A"/>
		<stop  offset="0.1698" style="stop-color:#DFB968"/>
		<stop  offset="0.4201" style="stop-color:#DFB968"/>
		<stop  offset="0.9838" style="stop-color:#965D24"/>
	</linearGradient>
	<path class="st72" d="M206.2,320.5c-0.2-0.2-0.3-0.4-0.3-0.7c0-0.3,0.1-0.5,0.3-0.7c0.2-0.2,0.4-0.3,0.7-0.3c0.3,0,0.5,0.1,0.7,0.3
		c0.2,0.2,0.3,0.4,0.3,0.7c0,0.3-0.1,0.5-0.3,0.7c-0.2,0.2-0.4,0.3-0.7,0.3C206.6,320.8,206.4,320.7,206.2,320.5z"/>
	<linearGradient id="SVGID_69_" gradientUnits="userSpaceOnUse" x1="6.8307" y1="320.0639" x2="476.5039" y2="319.2392">
		<stop  offset="4.469550e-03" style="stop-color:#EAD09A"/>
		<stop  offset="0.1698" style="stop-color:#DFB968"/>
		<stop  offset="0.4201" style="stop-color:#DFB968"/>
		<stop  offset="0.9838" style="stop-color:#965D24"/>
	</linearGradient>
	<path class="st73" d="M215.4,317.3c0.4,0.2,0.8,0.5,1,1c0.2,0.4,0.4,0.9,0.4,1.5s-0.1,1.1-0.4,1.5c-0.2,0.4-0.6,0.7-1,1
		c-0.4,0.2-1,0.3-1.6,0.3h-1.7v-5.6h1.7C214.4,316.9,214.9,317,215.4,317.3z M215.4,321.3c0.4-0.4,0.6-0.9,0.6-1.6
		c0-0.7-0.2-1.2-0.6-1.6c-0.4-0.4-0.9-0.6-1.6-0.6h-1v4.4h1C214.5,321.9,215.1,321.7,215.4,321.3z"/>
	<linearGradient id="SVGID_70_" gradientUnits="userSpaceOnUse" x1="6.8307" y1="320.0763" x2="476.5039" y2="319.2516">
		<stop  offset="4.469550e-03" style="stop-color:#EAD09A"/>
		<stop  offset="0.1698" style="stop-color:#DFB968"/>
		<stop  offset="0.4201" style="stop-color:#DFB968"/>
		<stop  offset="0.9838" style="stop-color:#965D24"/>
	</linearGradient>
	<path class="st74" d="M221,322.5l-1.3-2.3h-0.9v2.3h-0.7v-5.6h1.8c0.4,0,0.8,0.1,1.1,0.2c0.3,0.1,0.5,0.3,0.7,0.6
		c0.1,0.2,0.2,0.5,0.2,0.8c0,0.4-0.1,0.7-0.3,1c-0.2,0.3-0.6,0.5-1,0.6l1.4,2.3H221z M218.8,319.6h1.1c0.4,0,0.7-0.1,0.9-0.3
		c0.2-0.2,0.3-0.5,0.3-0.8c0-0.3-0.1-0.6-0.3-0.8c-0.2-0.2-0.5-0.3-0.9-0.3h-1.1V319.6z"/>
	<linearGradient id="SVGID_71_" gradientUnits="userSpaceOnUse" x1="6.8308" y1="320.0829" x2="476.5039" y2="319.2581">
		<stop  offset="4.469550e-03" style="stop-color:#EAD09A"/>
		<stop  offset="0.1698" style="stop-color:#DFB968"/>
		<stop  offset="0.4201" style="stop-color:#DFB968"/>
		<stop  offset="0.9838" style="stop-color:#965D24"/>
	</linearGradient>
	<path class="st75" d="M224.1,316.9v5.6h-0.7v-5.6H224.1z"/>
	<linearGradient id="SVGID_72_" gradientUnits="userSpaceOnUse" x1="6.8308" y1="320.0882" x2="476.5039" y2="319.2635">
		<stop  offset="4.469550e-03" style="stop-color:#EAD09A"/>
		<stop  offset="0.1698" style="stop-color:#DFB968"/>
		<stop  offset="0.4201" style="stop-color:#DFB968"/>
		<stop  offset="0.9838" style="stop-color:#965D24"/>
	</linearGradient>
	<path class="st76" d="M230.3,316.9l-2.1,5.6h-0.8l-2.1-5.6h0.8l1.7,4.8l1.7-4.8H230.3z"/>
	<linearGradient id="SVGID_73_" gradientUnits="userSpaceOnUse" x1="6.8308" y1="320.0956" x2="476.5039" y2="319.2709">
		<stop  offset="4.469550e-03" style="stop-color:#EAD09A"/>
		<stop  offset="0.1698" style="stop-color:#DFB968"/>
		<stop  offset="0.4201" style="stop-color:#DFB968"/>
		<stop  offset="0.9838" style="stop-color:#965D24"/>
	</linearGradient>
	<path class="st77" d="M232.2,317.5v1.9h2v0.6h-2v1.9h2.3v0.6h-3v-5.6h3v0.6H232.2z"/>
	<linearGradient id="SVGID_74_" gradientUnits="userSpaceOnUse" x1="6.8308" y1="320.1047" x2="476.504" y2="319.28">
		<stop  offset="4.469550e-03" style="stop-color:#EAD09A"/>
		<stop  offset="0.1698" style="stop-color:#DFB968"/>
		<stop  offset="0.4201" style="stop-color:#DFB968"/>
		<stop  offset="0.9838" style="stop-color:#965D24"/>
	</linearGradient>
	<path class="st78" d="M240.4,322.5h-0.7l-2.9-4.4v4.4H236v-5.6h0.7l2.9,4.4v-4.4h0.7V322.5z"/>
	<linearGradient id="SVGID_75_" gradientUnits="userSpaceOnUse" x1="6.8308" y1="320.1212" x2="476.504" y2="319.2965">
		<stop  offset="4.469550e-03" style="stop-color:#EAD09A"/>
		<stop  offset="0.1698" style="stop-color:#DFB968"/>
		<stop  offset="0.4201" style="stop-color:#DFB968"/>
		<stop  offset="0.9838" style="stop-color:#965D24"/>
	</linearGradient>
	<path class="st79" d="M247.9,319.9c0.2,0.1,0.3,0.3,0.4,0.5c0.1,0.2,0.1,0.4,0.1,0.6c0,0.3-0.1,0.5-0.2,0.8
		c-0.1,0.2-0.4,0.4-0.6,0.5c-0.3,0.1-0.6,0.2-1,0.2h-2.1v-5.6h2c0.4,0,0.7,0.1,1,0.2c0.3,0.1,0.5,0.3,0.6,0.5
		c0.1,0.2,0.2,0.5,0.2,0.7c0,0.3-0.1,0.6-0.3,0.8c-0.2,0.2-0.4,0.4-0.7,0.5C247.5,319.7,247.7,319.7,247.9,319.9z M245.2,319.3h1.2
		c0.3,0,0.6-0.1,0.8-0.2c0.2-0.2,0.3-0.4,0.3-0.7c0-0.3-0.1-0.5-0.3-0.7c-0.2-0.2-0.5-0.2-0.8-0.2h-1.2V319.3z M247.4,321.6
		c0.2-0.2,0.3-0.4,0.3-0.7c0-0.3-0.1-0.6-0.3-0.7c-0.2-0.2-0.5-0.3-0.9-0.3h-1.3v2h1.3C246.9,321.9,247.2,321.8,247.4,321.6z"/>
	<linearGradient id="SVGID_76_" gradientUnits="userSpaceOnUse" x1="6.8308" y1="320.1301" x2="476.504" y2="319.3054">
		<stop  offset="4.469550e-03" style="stop-color:#EAD09A"/>
		<stop  offset="0.1698" style="stop-color:#DFB968"/>
		<stop  offset="0.4201" style="stop-color:#DFB968"/>
		<stop  offset="0.9838" style="stop-color:#965D24"/>
	</linearGradient>
	<path class="st80" d="M253.7,316.9l-1.8,3.5v2.1h-0.7v-2.1l-1.8-3.5h0.8l1.4,2.8l1.4-2.8H253.7z"/>
	<linearGradient id="SVGID_77_" gradientUnits="userSpaceOnUse" x1="6.8327" y1="320.1411" x2="476.5025" y2="319.3164">
		<stop  offset="4.469550e-03" style="stop-color:#EAD09A"/>
		<stop  offset="0.1698" style="stop-color:#DFB968"/>
		<stop  offset="0.4201" style="stop-color:#DFB968"/>
		<stop  offset="0.9838" style="stop-color:#965D24"/>
	</linearGradient>
	<path class="st81" d="M258.1,317.5v1.9h2v0.6h-2v1.9h2.3v0.6h-3v-5.6h3v0.6H258.1z"/>
	<linearGradient id="SVGID_78_" gradientUnits="userSpaceOnUse" x1="6.8309" y1="320.1532" x2="476.5041" y2="319.3285">
		<stop  offset="4.469550e-03" style="stop-color:#EAD09A"/>
		<stop  offset="0.1698" style="stop-color:#DFB968"/>
		<stop  offset="0.4201" style="stop-color:#DFB968"/>
		<stop  offset="0.9838" style="stop-color:#965D24"/>
	</linearGradient>
	<path class="st82" d="M264.2,319.7l1.7,2.8H265l-1.3-2.2l-1.3,2.2h-0.8l1.7-2.8l-1.7-2.8h0.8l1.3,2.2l1.3-2.2h0.8L264.2,319.7z"/>
	<linearGradient id="SVGID_79_" gradientUnits="userSpaceOnUse" x1="6.8309" y1="320.1519" x2="476.5041" y2="319.3271">
		<stop  offset="4.469550e-03" style="stop-color:#EAD09A"/>
		<stop  offset="0.1698" style="stop-color:#DFB968"/>
		<stop  offset="0.4201" style="stop-color:#DFB968"/>
		<stop  offset="0.9838" style="stop-color:#965D24"/>
	</linearGradient>
	<path class="st83" d="M267.3,318.2c0.2-0.4,0.6-0.8,1-1c0.4-0.2,0.9-0.4,1.4-0.4c0.6,0,1.1,0.1,1.6,0.4c0.5,0.3,0.8,0.7,1,1.2h-0.9
		c-0.2-0.3-0.4-0.6-0.7-0.8c-0.3-0.2-0.6-0.3-1-0.3c-0.4,0-0.7,0.1-1,0.3c-0.3,0.2-0.6,0.4-0.7,0.8c-0.2,0.3-0.3,0.7-0.3,1.2
		c0,0.4,0.1,0.8,0.3,1.2c0.2,0.3,0.4,0.6,0.7,0.8c0.3,0.2,0.7,0.3,1,0.3c0.4,0,0.8-0.1,1-0.3c0.3-0.2,0.5-0.4,0.7-0.8h0.9
		c-0.2,0.5-0.5,0.9-1,1.2c-0.5,0.3-1,0.4-1.6,0.4c-0.5,0-1-0.1-1.4-0.4c-0.4-0.2-0.8-0.6-1-1c-0.2-0.4-0.4-0.9-0.4-1.5
		C267,319.2,267.1,318.7,267.3,318.2z"/>
	<linearGradient id="SVGID_80_" gradientUnits="userSpaceOnUse" x1="6.8309" y1="320.1699" x2="476.5041" y2="319.3452">
		<stop  offset="4.469550e-03" style="stop-color:#EAD09A"/>
		<stop  offset="0.1698" style="stop-color:#DFB968"/>
		<stop  offset="0.4201" style="stop-color:#DFB968"/>
		<stop  offset="0.9838" style="stop-color:#965D24"/>
	</linearGradient>
	<path class="st84" d="M274.5,317.5v1.9h2v0.6h-2v1.9h2.3v0.6h-3v-5.6h3v0.6H274.5z"/>
	<linearGradient id="SVGID_81_" gradientUnits="userSpaceOnUse" x1="6.8309" y1="320.181" x2="476.5041" y2="319.3563">
		<stop  offset="4.469550e-03" style="stop-color:#EAD09A"/>
		<stop  offset="0.1698" style="stop-color:#DFB968"/>
		<stop  offset="0.4201" style="stop-color:#DFB968"/>
		<stop  offset="0.9838" style="stop-color:#965D24"/>
	</linearGradient>
	<path class="st85" d="M279,321.9h1.9v0.6h-2.7v-5.6h0.7V321.9z"/>
	<linearGradient id="SVGID_82_" gradientUnits="userSpaceOnUse" x1="6.8309" y1="320.1878" x2="476.5041" y2="319.3631">
		<stop  offset="4.469550e-03" style="stop-color:#EAD09A"/>
		<stop  offset="0.1698" style="stop-color:#DFB968"/>
		<stop  offset="0.4201" style="stop-color:#DFB968"/>
		<stop  offset="0.9838" style="stop-color:#965D24"/>
	</linearGradient>
	<path class="st86" d="M282.9,321.9h1.9v0.6h-2.7v-5.6h0.7V321.9z"/>
	<linearGradient id="SVGID_83_" gradientUnits="userSpaceOnUse" x1="6.8309" y1="320.1913" x2="476.5041" y2="319.3665">
		<stop  offset="4.469550e-03" style="stop-color:#EAD09A"/>
		<stop  offset="0.1698" style="stop-color:#DFB968"/>
		<stop  offset="0.4201" style="stop-color:#DFB968"/>
		<stop  offset="0.9838" style="stop-color:#965D24"/>
	</linearGradient>
	<path class="st87" d="M286.7,317.5v1.9h2v0.6h-2v1.9h2.3v0.6h-3v-5.6h3v0.6H286.7z"/>
	<linearGradient id="SVGID_84_" gradientUnits="userSpaceOnUse" x1="6.831" y1="320.2004" x2="476.5041" y2="319.3757">
		<stop  offset="4.469550e-03" style="stop-color:#EAD09A"/>
		<stop  offset="0.1698" style="stop-color:#DFB968"/>
		<stop  offset="0.4201" style="stop-color:#DFB968"/>
		<stop  offset="0.9838" style="stop-color:#965D24"/>
	</linearGradient>
	<path class="st88" d="M294.8,322.5h-0.7l-2.9-4.4v4.4h-0.7v-5.6h0.7l2.9,4.4v-4.4h0.7V322.5z"/>
	<linearGradient id="SVGID_85_" gradientUnits="userSpaceOnUse" x1="6.831" y1="320.2032" x2="476.5042" y2="319.3785">
		<stop  offset="4.469550e-03" style="stop-color:#EAD09A"/>
		<stop  offset="0.1698" style="stop-color:#DFB968"/>
		<stop  offset="0.4201" style="stop-color:#DFB968"/>
		<stop  offset="0.9838" style="stop-color:#965D24"/>
	</linearGradient>
	<path class="st89" d="M296.6,318.2c0.2-0.4,0.6-0.8,1-1c0.4-0.2,0.9-0.4,1.4-0.4c0.6,0,1.1,0.1,1.6,0.4c0.5,0.3,0.8,0.7,1,1.2h-0.9
		c-0.2-0.3-0.4-0.6-0.7-0.8c-0.3-0.2-0.6-0.3-1-0.3c-0.4,0-0.7,0.1-1,0.3c-0.3,0.2-0.6,0.4-0.7,0.8c-0.2,0.3-0.3,0.7-0.3,1.2
		c0,0.4,0.1,0.8,0.3,1.2c0.2,0.3,0.4,0.6,0.7,0.8c0.3,0.2,0.7,0.3,1,0.3c0.4,0,0.8-0.1,1-0.3c0.3-0.2,0.5-0.4,0.7-0.8h0.9
		c-0.2,0.5-0.5,0.9-1,1.2c-0.5,0.3-1,0.4-1.6,0.4c-0.5,0-1-0.1-1.4-0.4c-0.4-0.2-0.8-0.6-1-1c-0.2-0.4-0.4-0.9-0.4-1.5
		C296.2,319.2,296.3,318.7,296.6,318.2z"/>
	<linearGradient id="SVGID_86_" gradientUnits="userSpaceOnUse" x1="6.831" y1="320.2212" x2="476.5042" y2="319.3965">
		<stop  offset="4.469550e-03" style="stop-color:#EAD09A"/>
		<stop  offset="0.1698" style="stop-color:#DFB968"/>
		<stop  offset="0.4201" style="stop-color:#DFB968"/>
		<stop  offset="0.9838" style="stop-color:#965D24"/>
	</linearGradient>
	<path class="st90" d="M303.8,317.5v1.9h2v0.6h-2v1.9h2.3v0.6h-3v-5.6h3v0.6H303.8z"/>
</g>
</svg>
